<svg width="48" height="48" viewBox="0 0 48 48" fill="none" xmlns="http://www.w3.org/2000/svg">
<mask id="mask0_139_51" style="mask-type:alpha" maskUnits="userSpaceOnUse" x="6" y="2" width="40" height="44">
<path d="M38 31V44H13.625C9.875 44 8 42 8 37V4H20" stroke="white" stroke-width="4" stroke-linecap="round" stroke-linejoin="round"/>
<path d="M33 26C37.9706 26 42 21.9706 42 17C42 12.0294 37.9706 8 33 8C28.0294 8 24 12.0294 24 17C24 21.9706 28.0294 26 33 26Z" stroke="white" stroke-width="3"/>
<path d="M22 18V16M44 18V16M33 8C32.833 7 31.8 4.8 29 4M33 8C33.083 7 33.6 4.8 35 4" stroke="white" stroke-width="3" stroke-linecap="round" stroke-linejoin="round"/>
<path d="M36 18C37.1046 18 38 17.1046 38 16C38 14.8954 37.1046 14 36 14C34.8954 14 34 14.8954 34 16C34 17.1046 34.8954 18 36 18Z" fill="black"/>
<path d="M30 18C31.1046 18 32 17.1046 32 16C32 14.8954 31.1046 14 30 14C28.8954 14 28 14.8954 28 16C28 17.1046 28.8954 18 30 18Z" fill="black"/>
<path d="M8 36H38" stroke="white" stroke-width="4" stroke-linecap="round" stroke-linejoin="round"/>
</mask>
<g mask="url(#mask0_139_51)">
<path d="M0 0H48V48H0V0Z" fill="white"/>
</g>
</svg>
