<svg width="16" height="16" viewBox="0 0 16 16" fill="none" xmlns="http://www.w3.org/2000/svg">
<path d="M5.251 9.749C5.34936 9.749 5.44676 9.72963 5.53763 9.69199C5.6285 9.65435 5.71107 9.59917 5.78062 9.52962C5.85017 9.46007 5.90535 9.3775 5.94299 9.28663C5.98063 9.19576 6 9.09836 6 9C6 8.90164 5.98063 8.80424 5.94299 8.71337C5.90535 8.6225 5.85017 8.53993 5.78062 8.47038C5.71107 8.40083 5.6285 8.34565 5.53763 8.30801C5.44676 8.27037 5.34936 8.251 5.251 8.251C5.05235 8.251 4.86184 8.32991 4.72138 8.47038C4.58091 8.61084 4.502 8.80135 4.502 9C4.502 9.19865 4.58091 9.38916 4.72138 9.52962C4.86184 9.67009 5.05235 9.749 5.251 9.749V9.749ZM11.498 8.999C11.4981 9.19765 11.4193 9.38821 11.279 9.52877C11.1386 9.66933 10.9481 9.74837 10.7495 9.7485C10.5509 9.74863 10.3603 9.66985 10.2197 9.52948C10.0792 9.38911 10.0001 9.19865 10 9C10 8.80135 10.0789 8.61084 10.2194 8.47038C10.3598 8.32991 10.5504 8.251 10.749 8.251C10.9476 8.251 11.1382 8.32991 11.2786 8.47038C11.4191 8.61084 11.498 8.80135 11.498 9V8.999ZM6.5 1C6.36739 1 6.24021 1.05268 6.14645 1.14645C6.05268 1.24021 6 1.36739 6 1.5V2H5.319C4.83283 1.99989 4.36326 2.17687 3.99811 2.49785C3.63296 2.81883 3.39723 3.26183 3.335 3.744L3.173 5H2.5C2.36739 5 2.24021 5.05268 2.14645 5.14645C2.05268 5.24021 2 5.36739 2 5.5C2 5.63261 2.05268 5.75979 2.14645 5.85355C2.24021 5.94732 2.36739 6 2.5 6H3.044L3.034 6.074C2.73329 6.17228 2.47136 6.36313 2.28565 6.61924C2.09993 6.87536 1.99995 7.18364 2 7.5V10.5C2 10.8978 2.15804 11.2794 2.43934 11.5607C2.72064 11.842 3.10218 12 3.5 12V13.25C3.5 13.4489 3.57902 13.6397 3.71967 13.7803C3.86032 13.921 4.05109 14 4.25 14C4.44891 14 4.63968 13.921 4.78033 13.7803C4.92098 13.6397 5 13.4489 5 13.25V12H10.997V13.25C10.997 13.4489 11.076 13.6397 11.2167 13.7803C11.3573 13.921 11.5481 14 11.747 14C11.9459 14 12.1367 13.921 12.2773 13.7803C12.418 13.6397 12.497 13.4489 12.497 13.25V12H12.5C12.8978 12 13.2794 11.842 13.5607 11.5607C13.842 11.2794 14 10.8978 14 10.5V7.5C14.0001 7.18255 13.8994 6.87327 13.7125 6.61666C13.5256 6.36005 13.2622 6.16935 12.96 6.072L12.951 6H13.5C13.6326 6 13.7598 5.94732 13.8536 5.85355C13.9473 5.75979 14 5.63261 14 5.5C14 5.36739 13.9473 5.24021 13.8536 5.14645C13.7598 5.05268 13.6326 5 13.5 5H12.823L12.663 3.747C12.6015 3.26445 12.3662 2.82088 12.0012 2.49931C11.6362 2.17774 11.1665 2.00023 10.68 2H10V1.5C10 1.36739 9.94732 1.24021 9.85355 1.14645C9.75979 1.05268 9.63261 1 9.5 1H6.5ZM4.052 6L4.327 3.872C4.35812 3.63091 4.47598 3.40942 4.65856 3.24893C4.84113 3.08844 5.07591 2.99995 5.319 3H10.679C10.9222 2.99998 11.1571 3.08861 11.3397 3.2493C11.5223 3.40999 11.6401 3.63173 11.671 3.873L11.943 6H4.053H4.052ZM13 10.5C13 10.6326 12.9473 10.7598 12.8536 10.8536C12.7598 10.9473 12.6326 11 12.5 11H3.5C3.36739 11 3.24021 10.9473 3.14645 10.8536C3.05268 10.7598 3 10.6326 3 10.5V7.5C3 7.36739 3.05268 7.24021 3.14645 7.14645C3.24021 7.05268 3.36739 7 3.5 7H12.5C12.6326 7 12.7598 7.05268 12.8536 7.14645C12.9473 7.24021 13 7.36739 13 7.5V10.5Z" fill="white"/>
</svg>
