<svg width="20" height="20" viewBox="0 0 20 20" fill="none" xmlns="http://www.w3.org/2000/svg">
<path d="M6.98694 2.06561C7.42452 1.93368 7.89409 1.9556 8.31748 2.12772C8.74087 2.29984 9.09254 2.61178 9.31394 3.01161L9.38794 3.16061L10.0499 4.63161C10.2508 5.0781 10.3161 5.57379 10.2375 6.05705C10.1589 6.5403 9.93997 6.98979 9.60794 7.34961L9.47494 7.48161L8.43194 8.45461C8.24394 8.63261 8.38494 9.32161 9.06494 10.4996C9.67694 11.5596 10.1749 12.0546 10.4199 12.0816H10.4629L10.5159 12.0716L12.5659 11.4446C12.8415 11.3601 13.1355 11.3568 13.4128 11.435C13.6902 11.5132 13.9392 11.6696 14.1299 11.8856L14.2209 12.0006L15.5779 13.8806C15.8439 14.2491 15.9764 14.6972 15.9537 15.1511C15.931 15.6049 15.7544 16.0375 15.4529 16.3776L15.3309 16.5036L14.7889 17.0176C14.3022 17.4785 13.6934 17.79 13.0348 17.915C12.3763 18.04 11.6957 17.9732 11.0739 17.7226C9.13894 16.9426 7.38094 15.1606 5.78394 12.3946C4.18394 9.62161 3.51894 7.20461 3.81594 5.13461C3.90581 4.50888 4.16348 3.91917 4.56157 3.42811C4.95967 2.93705 5.48333 2.56297 6.07694 2.34561L6.26994 2.28161L6.98694 2.06561V2.06561Z" fill="white"/>
</svg>
