<svg width="50" height="50" viewBox="0 0 50 50" fill="none" xmlns="http://www.w3.org/2000/svg">
<path d="M47.783 11.883C47.095 11.341 45.25 10.906 43.869 10.582L42 10.332V5.814L42.957 5.799C43.854 6.254 45.146 7 45.213 8H48.817C48.75 6 47.231 4.738 45.879 3.736C44.982 3.071 44 2.716 42 2.501V0H40V2.424C38 2.616 37.354 3.114 36.451 3.927C35.27 4.99 34.744 6.324 34.744 7.93C34.744 9.69 35.247 10.983 36.456 11.811C37.132 12.28 38 12.716 40 13.12V18.015C39 17.838 38.998 17.883 38.645 17.464C38.305 17.058 38.212 16 38.096 16H34.52C34.52 18 35.061 18.958 36.415 20.025C37.391 20.794 38 20.93 40 21.132V23H42V21.164C44 20.971 45.699 20.462 46.676 19.628C47.944 18.545 48.981 17.184 48.981 15.546C48.98 13.948 48.852 12.728 47.783 11.883V11.883ZM39.018 9.097C38.436 8.78 38.212 8.3 38.212 7.659C38.212 6.961 38.405 6.415 38.995 6.025C39.306 5.82 39 5.671 40 5.572V9.512C39 9.36 39.238 9.222 39.018 9.097V9.097ZM43.361 17.917C43.193 17.975 42 18.021 42 18.062V13.895C44 14.067 43.846 14.252 44.178 14.453C44.699 14.777 44.961 15.239 44.961 15.83C44.961 16.846 44.426 17.543 43.361 17.917ZM38.52 30H37.967L31.823 18.875C31.558 18.394 30.89 18 30.34 18H11.699C11.149 18 10.481 18.394 10.216 18.875L4.072 30H3.52C2.419 30 1 30.9 1 32V42C1 43.1 2.419 44 3.52 44H5V47C5 48.65 6.87 50 8.52 50H9.52C11.17 50 12 48.65 12 47V44H29V47C29 48.65 30.869 50 32.52 50H33.52C35.17 50 36 48.65 36 47V44H38.52C39.62 44 40 43.1 40 42V32C40 30.9 39.619 30 38.52 30ZM7.02 38C6.35696 38 5.72107 37.7366 5.25223 37.2678C4.78339 36.7989 4.52 36.163 4.52 35.5C4.52 34.837 4.78339 34.2011 5.25223 33.7322C5.72107 33.2634 6.35696 33 7.02 33C7.68304 33 8.31893 33.2634 8.78777 33.7322C9.25661 34.2011 9.52 34.837 9.52 35.5C9.52 36.163 9.25661 36.7989 8.78777 37.2678C8.31893 37.7366 7.68304 38 7.02 38V38ZM9.02 30L13.073 21.895C13.318 21.402 13.97 21 14.52 21H27.52C28.07 21 28.721 21.402 28.967 21.895L33.02 30H9.02ZM35.02 38C34.357 38 33.7211 37.7366 33.2522 37.2678C32.7834 36.7989 32.52 36.163 32.52 35.5C32.52 34.837 32.7834 34.2011 33.2522 33.7322C33.7211 33.2634 34.357 33 35.02 33C35.683 33 36.3189 33.2634 36.7878 33.7322C37.2566 34.2011 37.52 34.837 37.52 35.5C37.52 36.163 37.2566 36.7989 36.7878 37.2678C36.3189 37.7366 35.683 38 35.02 38V38Z" fill="white"/>
</svg>
