<svg width="24" height="24" viewBox="0 0 24 24" fill="none" xmlns="http://www.w3.org/2000/svg">
<path d="M19.0002 20.0008H5.00017C4.73496 20.0008 4.4806 20.1062 4.29307 20.2937C4.10553 20.4813 4.00017 20.7356 4.00017 21.0008C4.00017 21.2661 4.10553 21.5204 4.29307 21.7079C4.4806 21.8955 4.73496 22.0008 5.00017 22.0008H19.0002C19.2654 22.0008 19.5197 21.8955 19.7073 21.7079C19.8948 21.5204 20.0002 21.2661 20.0002 21.0008C20.0002 20.7356 19.8948 20.4813 19.7073 20.2937C19.5197 20.1062 19.2654 20.0008 19.0002 20.0008ZM5.00017 18.0008H5.09017L9.26017 17.6208C9.71697 17.5753 10.1442 17.3741 10.4702 17.0508L19.4702 8.05083C19.8195 7.6818 20.0083 7.18934 19.9952 6.68137C19.982 6.1734 19.7681 5.69134 19.4002 5.34083L16.6602 2.60083C16.3026 2.26493 15.834 2.07219 15.3435 2.05929C14.853 2.04638 14.375 2.2142 14.0002 2.53083L5.00017 11.5308C4.67694 11.8568 4.47568 12.284 4.43017 12.7408L4.00017 16.9108C3.9867 17.0573 4.00571 17.2049 4.05584 17.3432C4.10596 17.4815 4.18598 17.607 4.29017 17.7108C4.38361 17.8035 4.49443 17.8768 4.61627 17.9266C4.73811 17.9764 4.86857 18.0016 5.00017 18.0008ZM15.2702 4.00083L18.0002 6.73083L16.0002 8.68083L13.3202 6.00083L15.2702 4.00083Z" fill="#fff"/>
</svg>
