<svg width="24" height="24" viewBox="0 0 24 24" fill="none" xmlns="http://www.w3.org/2000/svg">
<path d="M19.4 7.34083L16.66 4.60083C16.3024 4.26493 15.8338 4.07219 15.3433 4.05929C14.8529 4.04638 14.3748 4.2142 14 4.53083L4.99999 13.5308C4.67676 13.8568 4.4755 14.284 4.42999 14.7408L3.99999 18.9108C3.98652 19.0573 4.00553 19.2049 4.05565 19.3432C4.10578 19.4815 4.18579 19.607 4.28999 19.7108C4.38343 19.8035 4.49425 19.8768 4.61609 19.9266C4.73792 19.9764 4.86838 20.0016 4.99999 20.0008H5.08999L9.25999 19.6208C9.71679 19.5753 10.144 19.3741 10.47 19.0508L19.47 10.0508C19.8193 9.6818 20.0081 9.18934 19.995 8.68137C19.9818 8.1734 19.7679 7.69134 19.4 7.34083V7.34083ZM16 10.6808L13.32 8.00083L15.27 6.00083L18 8.73083L16 10.6808Z" fill="white"/>
</svg>
