<svg width="324" height="324" viewBox="0 0 324 324" fill="none" xmlns="http://www.w3.org/2000/svg">
<path d="M253.125 131.625C253.125 107.457 243.524 84.2791 226.435 67.1899C209.346 50.1006 186.168 40.5 162 40.5C137.832 40.5 114.654 50.1006 97.5649 67.1899C80.4756 84.2791 70.875 107.457 70.875 131.625C70.875 169.006 100.784 217.728 162 276.088C223.216 217.728 253.125 169.006 253.125 131.625ZM162 303.75C87.7432 236.257 50.625 178.868 50.625 131.625C50.625 102.087 62.3591 73.7578 83.246 52.871C104.133 31.9841 132.462 20.25 162 20.25C191.538 20.25 219.867 31.9841 240.754 52.871C261.641 73.7578 273.375 102.087 273.375 131.625C273.375 178.868 236.257 236.257 162 303.75Z" fill="white" fill-opacity="0.8"/>
<path d="M162 162C170.056 162 177.782 158.8 183.478 153.103C189.175 147.407 192.375 139.681 192.375 131.625C192.375 123.569 189.175 115.843 183.478 110.147C177.782 104.45 170.056 101.25 162 101.25C153.944 101.25 146.218 104.45 140.522 110.147C134.825 115.843 131.625 123.569 131.625 131.625C131.625 139.681 134.825 147.407 140.522 153.103C146.218 158.8 153.944 162 162 162V162ZM162 182.25C148.573 182.25 135.697 176.916 126.203 167.422C116.709 157.928 111.375 145.052 111.375 131.625C111.375 118.198 116.709 105.322 126.203 95.8277C135.697 86.3337 148.573 81 162 81C175.427 81 188.303 86.3337 197.797 95.8277C207.291 105.322 212.625 118.198 212.625 131.625C212.625 145.052 207.291 157.928 197.797 167.422C188.303 176.916 175.427 182.25 162 182.25Z" fill="white" fill-opacity="0.8"/>
</svg>
