<svg width="1024" height="1024" viewBox="0 0 1024 1024" fill="none" xmlns="http://www.w3.org/2000/svg">
<path d="M924.3 338.401C901.864 284.853 869.224 236.183 828.2 195.101C787.298 153.948 738.712 121.229 685.2 98.8009C630.381 75.7141 571.482 63.8798 512 64.0009H510C449.5 64.3009 391 76.3009 335.9 99.9009C282.847 122.558 234.717 155.336 194.2 196.401C153.573 237.39 121.307 285.891 99.1999 339.201C76.2515 394.637 64.6234 454.104 65 514.101C65.3 583.501 81.9 652.401 112.9 714.001V866.001C112.9 891.401 133.5 912.001 158.8 912.001H310.6C372.487 943.229 440.781 959.661 510.1 960.001H512.2C572 960.001 629.9 948.401 684.5 925.701C737.741 903.541 786.146 871.203 827 830.501C868.2 789.601 900.6 741.801 923.3 688.501C946.8 633.301 958.8 574.601 959.1 514.001C959.3 453.101 947.5 394.001 924.3 338.401ZM312.4 560.001C286 560.001 264.5 538.501 264.5 512.001C264.5 485.501 286 464.001 312.4 464.001C338.8 464.001 360.3 485.501 360.3 512.001C360.3 538.501 338.9 560.001 312.4 560.001ZM512 560.001C485.6 560.001 464.1 538.501 464.1 512.001C464.1 485.501 485.6 464.001 512 464.001C538.4 464.001 559.9 485.501 559.9 512.001C559.9 538.501 538.4 560.001 512 560.001ZM711.6 560.001C685.2 560.001 663.7 538.501 663.7 512.001C663.7 485.501 685.2 464.001 711.6 464.001C738 464.001 759.5 485.501 759.5 512.001C759.5 538.501 738 560.001 711.6 560.001Z" fill="#fff"/>
</svg>
