<svg width="1024" height="1024" viewBox="0 0 1024 1024" fill="none" xmlns="http://www.w3.org/2000/svg">
<path d="M464 512C464 524.73 469.057 536.939 478.059 545.941C487.061 554.943 499.27 560 512 560C524.73 560 536.939 554.943 545.941 545.941C554.943 536.939 560 524.73 560 512C560 499.27 554.943 487.061 545.941 478.059C536.939 469.057 524.73 464 512 464C499.27 464 487.061 469.057 478.059 478.059C469.057 487.061 464 499.27 464 512V512ZM664 512C664 524.73 669.057 536.939 678.059 545.941C687.061 554.943 699.27 560 712 560C724.73 560 736.939 554.943 745.941 545.941C754.943 536.939 760 524.73 760 512C760 499.27 754.943 487.061 745.941 478.059C736.939 469.057 724.73 464 712 464C699.27 464 687.061 469.057 678.059 478.059C669.057 487.061 664 499.27 664 512ZM264 512C264 524.73 269.057 536.939 278.059 545.941C287.061 554.943 299.27 560 312 560C324.73 560 336.939 554.943 345.941 545.941C354.943 536.939 360 524.73 360 512C360 499.27 354.943 487.061 345.941 478.059C336.939 469.057 324.73 464 312 464C299.27 464 287.061 469.057 278.059 478.059C269.057 487.061 264 499.27 264 512V512ZM925.2 338.4C902.6 284.7 870.2 236.5 828.9 195.1C787.889 153.94 739.203 121.222 685.6 98.8C630.6 75.7 572.2 64 512 64H510C449.4 64.3 390.7 76.3 335.5 99.9C282.356 122.552 234.126 155.328 193.5 196.4C152.6 237.7 120.5 285.7 98.3 339.2C75.3 394.6 63.7 453.5 64 514.1C64.3393 583.547 80.7692 651.971 112 714V866C112 878.2 116.846 889.9 125.473 898.527C134.1 907.154 145.8 912 158 912H310.1C372.129 943.231 440.553 959.661 510 960H512.1C572 960 630.1 948.4 684.8 925.7C738.133 903.545 786.637 871.209 827.6 830.5C868.9 789.6 901.4 741.8 924.1 688.5C947.7 633.3 959.7 574.6 960 514C960.3 453.1 948.5 394 925.2 338.4V338.4ZM774.1 776.4C704 845.8 611 884 512 884H510.3C450 883.7 390.1 868.7 337.2 840.5L328.8 836H188V695.2L183.5 686.8C155.3 633.9 140.3 574 140 513.7C139.6 414 177.7 320.4 247.6 249.9C317.4 179.4 410.7 140.4 510.4 140H512.1C562.1 140 610.6 149.7 656.3 168.9C700.9 187.6 740.9 214.5 775.3 248.9C809.6 283.2 836.6 323.3 855.3 367.9C874.7 414.1 884.4 463.1 884.2 513.7C883.6 613.3 844.5 706.6 774.1 776.4V776.4Z" fill="#fff" fill-opacity=""/>
</svg>
