<svg width="108" height="108" viewBox="0 0 108 108" fill="none" xmlns="http://www.w3.org/2000/svg">
<path d="M95.7762 37.2407L68.9977 33.3489L57.027 9.08051C56.7 8.41605 56.1622 7.87816 55.4977 7.55121C53.8313 6.72855 51.8063 7.4141 50.9731 9.08051L39.0024 33.3489L12.2239 37.2407C11.4856 37.3461 10.8106 37.6942 10.2938 38.2215C9.66902 38.8637 9.32473 39.7276 9.3366 40.6235C9.34847 41.5194 9.71551 42.3739 10.3571 42.9993L29.7317 61.8887L25.1543 88.5618C25.047 89.1822 25.1157 89.8204 25.3525 90.4038C25.5894 90.9872 25.985 91.4926 26.4945 91.8627C27.004 92.2327 27.607 92.4526 28.2351 92.4974C28.8632 92.5422 29.4913 92.4101 30.0481 92.1161L54 79.5231L77.952 92.1161C78.6059 92.4641 79.3653 92.5801 80.093 92.4536C81.9282 92.1371 83.1622 90.3969 82.8458 88.5618L78.2684 61.8887L97.643 42.9993C98.1704 42.4825 98.5184 41.8075 98.6239 41.0692C98.9086 39.2235 97.6219 37.5149 95.7762 37.2407V37.2407Z" fill="#FFBD1B"/>
</svg>
