<?xml version="1.0" encoding="iso-8859-1"?>
<!-- Generator: Adobe Illustrator 19.0.0, SVG Export Plug-In . SVG Version: 6.00 Build 0)  -->
<svg version="1.1" fill="#fff" xmlns="http://www.w3.org/2000/svg" xmlns:xlink="http://www.w3.org/1999/xlink" x="0px" y="0px"
	 viewBox="0 0 489 489" style="enable-background:new 0 0 489 489;" xml:space="preserve">
<g>
	<path d="M440.1,132.318h-58.3c28.1-30.3,27.4-77.6-2-107.1c-18.7-18.6-64.9-39.6-108.3,0c-9,8.2-19.3,23.6-27.8,41.3
		c-8.5-17.7-18.7-33.1-27.3-41.3c-44.6-42.2-90-17.7-108.2,0c-29.9,29-30.1,76.8-2,107.1H48.9c-27,0-48.9,21.8-48.9,48.9v257
		c0,27,21.8,48.9,48.9,48.9h391.2c27,0,48.9-21.8,48.9-48.9v-257C489,154.218,467.1,132.318,440.1,132.318z M299.6,53.318
		c26.2-20.5,44.7-6.2,51,0c14.6,14.6,14.6,37.5,0,52c-9.3,10.1-29.1,21.1-47.6,27h-33.7C264.1,119.118,279.1,73.818,299.6,53.318z
		 M137.3,105.318c-14.6-14.6-14.6-37.5,0-52c24.5-19.9,44.7-6.2,51,0c20.4,20.4,35.4,66.3,30.5,79h-33.1
		C166.9,126.318,146.8,114.818,137.3,105.318z M448.4,438.218c0,4.2-4.2,8.3-8.3,8.3H48.9c-4.2,0-8.3-4.2-8.3-8.3v-257
		c0-5.2,4.2-8.3,8.3-8.3h391.2c4.2,0,8.3,4.2,8.3,8.3V438.218z"/>
</g>
<g>
</g>
<g>
</g>
<g>
</g>
<g>
</g>
<g>
</g>
<g>
</g>
<g>
</g>
<g>
</g>
<g>
</g>
<g>
</g>
<g>
</g>
<g>
</g>
<g>
</g>
<g>
</g>
<g>
</g>
</svg>
