<svg width="39" height="39" viewBox="0 0 39 39" fill="none" xmlns="http://www.w3.org/2000/svg">
<path d="M19.5 2.4375C10.0775 2.4375 2.4375 10.0775 2.4375 19.5C2.4375 28.9225 10.0775 36.5625 19.5 36.5625C28.9225 36.5625 36.5625 28.9225 36.5625 19.5C36.5625 10.0775 28.9225 2.4375 19.5 2.4375ZM19.5 33.668C11.6771 33.668 5.33203 27.3229 5.33203 19.5C5.33203 11.6771 11.6771 5.33203 19.5 5.33203C27.3229 5.33203 33.668 11.6771 33.668 19.5C33.668 27.3229 27.3229 33.668 19.5 33.668Z" fill="#7C7C7C"/>
<path d="M26.1193 13.4062C26.1193 13.2387 25.9822 13.1016 25.8146 13.1016L23.301 13.113L19.5152 17.6262L15.7333 13.1168L13.2158 13.1054C13.0482 13.1054 12.9111 13.2387 12.9111 13.4101C12.9111 13.4824 12.9378 13.551 12.9835 13.6081L17.9385 19.5114L12.9835 25.4109C12.9375 25.4668 12.9119 25.5366 12.9111 25.609C12.9111 25.7766 13.0482 25.9137 13.2158 25.9137L15.7333 25.9022L19.5152 21.3891L23.2972 25.8984L25.8108 25.9099C25.9784 25.9099 26.1155 25.7766 26.1155 25.6052C26.1155 25.5328 26.0889 25.4643 26.0432 25.4071L21.0958 19.5076L26.0508 13.6043C26.0965 13.551 26.1193 13.4786 26.1193 13.4062V13.4062Z" fill="#7C7C7C"/>
</svg>
