<?xml version="1.0" encoding="iso-8859-1"?>
<!-- Generator: Adobe Illustrator 16.0.0, SVG Export Plug-In . SVG Version: 6.00 Build 0)  -->
<!DOCTYPE svg PUBLIC "-//W3C//DTD SVG 1.1//EN" "http://www.w3.org/Graphics/SVG/1.1/DTD/svg11.dtd">
<svg version="1.1" fill="#696969" xmlns="http://www.w3.org/2000/svg" xmlns:xlink="http://www.w3.org/1999/xlink" x="0px" y="0px"
	 width="425.026px" height="425.026px" viewBox="0 0 425.026 425.026" style="enable-background:new 0 0 425.026 425.026;"
	 xml:space="preserve">
<g>
	<g>
		<path d="M92.556,400.805c5.38,5.652,12.725,8.765,20.698,8.765h148.455c4.362,0,10.618,2.29,14.295,4.646
			c10.607,6.814,23.338,10.811,36.978,10.811c37.841,0,68.634-30.777,68.634-68.634c0-19.032-7.811-36.246-20.378-48.677
			c-3.098-3.078-6.724-8.679-7.719-12.929c-1.849-7.927-4.148-17.728-7.003-29.858c-9.241-39.273-39.734-58.098-60.265-66.552
			c-4.037-1.658-4.814-5.19-1.858-8.404c18.534-20.185,29.909-47.03,29.909-76.535C314.301,50.884,263.415,0,200.864,0
			C138.313,0,87.427,50.884,87.427,113.438c0,29.269,11.194,55.938,29.467,76.068c2.933,3.232,2.143,6.746-1.912,8.374
			c-20.533,8.216-52.044,27.05-61.454,67.069c-4.202,17.854-7.213,30.723-9.354,39.954c-1.848,7.932-0.314,15.508,4.299,21.322
			c4.628,5.829,11.692,9.044,19.891,9.044h10.864c4.359,0,7.718,3.529,7.498,7.892l-1.859,36.53
			C84.441,387.647,87.184,395.153,92.556,400.805z M366.071,356.403c0,29.284-23.82,53.095-53.095,53.095
			c-29.28,0-53.096-23.811-53.096-53.095c0-29.274,23.815-53.101,53.096-53.101C342.25,303.312,366.071,327.129,366.071,356.403z
			 M200.849,11.857c56.02,0,101.585,45.575,101.585,101.587c0,2.242-0.092,4.456-0.27,6.65c-0.284,3.666-4.24,6.431-8.536,5.697
			c-31.412-5.388-48.824-29.617-56.776-44.801c-2.996-5.728-6.846-8.792-11.436-9.133c-4.657-0.325-8.966,2.204-12.845,7.513
			c-25.367,34.713-78.604,44.097-104.484,46.633c-4.344,0.427-8.287-2.3-8.564-5.948c-0.165-2.189-0.262-4.393-0.262-6.619
			C99.261,57.439,144.829,11.857,200.849,11.857z M110.37,137.761c28.117-2.78,83.812-13.114,111.776-51.396
			c0.406-0.562,0.777-1.006,1.092-1.361c0.64-0.719,1.803-0.655,2.3,0.097c0.254,0.378,0.528,0.835,0.823,1.389
			c9.028,17.247,28.843,44.793,64.998,51.003c4.301,0.742,6.992,4.416,5.596,8.549c-5.286,15.587-14.208,29.506-25.812,40.67
			c-3.144,3.024-6.037,5.22-6.2,5.189c-0.167-0.033-0.335,0.094-0.365,0.27c-0.03,0.18-2.793,2.574-6.389,5.047
			c-16.33,11.226-36.073,17.821-57.34,17.821c-44.628,0-82.515-28.959-96.111-69.045
			C103.339,141.854,106.033,138.195,110.37,137.761z M189.195,226.219c3.834,0.422,7.711,0.671,11.654,0.671
			c3.326,0,6.604-0.184,9.843-0.498c4.344-0.427,6.447,2.244,4.733,6.256l-12.324,28.97c-1.706,4.012-4.481,4.012-6.188,0
			l-12.441-29.254C182.766,228.352,184.858,225.736,189.195,226.219z M183.998,280.071h-45.852c-4.367,0-7.82-1.453-9.717-4.083
			c-1.896-2.655-2.173-6.394-0.774-10.542l15.414-45.534c1.396-4.134,5.602-5.728,9.542-3.849c2.3,1.102,4.646,2.117,7.033,3.057
			c4.06,1.604,8.831,5.88,10.537,9.902l18.629,43.782C190.507,276.816,188.36,280.071,183.998,280.071z M240.228,219.771
			c2.509-0.914,4.972-1.92,7.389-3.012c3.981-1.782,8.217-0.147,9.613,3.981l15.132,44.701c1.396,4.148,1.122,7.886-0.776,10.521
			c-1.895,2.655-5.348,4.098-9.715,4.098h-45.854c-4.359,0-6.518-3.25-4.811-7.267l18.415-43.289
			C231.342,225.498,236.141,221.273,240.228,219.771z M57.741,318.861c-2.323-2.93-3.052-6.931-2.039-11.283
			c2.14-9.227,5.151-22.079,9.346-39.933c9.242-39.294,43.615-55.406,60.664-61.091c4.139-1.384,8.026-1.866,8.587-1.447
			c0.554,0.419-0.119,4.101-1.518,8.233l-16.344,48.292c-2.656,7.866-1.81,15.396,2.369,21.236
			c4.187,5.829,11.052,9.038,19.347,9.038h52.069h19.593h52.07c8.287,0,15.158-3.209,19.347-9.038
			c4.185-5.83,5.032-13.36,2.366-21.236l-16.006-47.291c-1.396-4.131-1.863-7.955-1.056-8.562c0.808-0.617,4.89-0.229,9.014,1.201
			c17.427,6.035,50.403,22.295,59.433,60.664c1.625,6.926,3.066,13.065,4.352,18.539c0.995,4.251-1.412,6.18-5.57,4.845
			c-6.556-2.112-13.533-3.271-20.774-3.271c-37.841,0-68.639,30.793-68.639,68.634c0,12.695,3.509,24.562,9.552,34.77
			c2.229,3.753,0.873,6.556-3.489,6.556H113.254c-4.685,0-8.991-1.808-12.111-5.094c-3.121-3.27-4.7-7.673-4.472-12.339
			l2.488-48.987c0.221-4.362-3.136-7.896-7.498-7.896H68.334C63.848,323.411,60.07,321.792,57.741,318.861z"/>
		<path d="M277.13,355.91c0,4.489,3.661,8.146,8.155,8.146h58.427c4.494,0,8.155-3.656,8.155-8.146c0-4.483-3.661-8.145-8.155-8.145
			h-58.427C280.792,347.766,277.13,351.417,277.13,355.91z"/>
	</g>
</g>
<g>
</g>
<g>
</g>
<g>
</g>
<g>
</g>
<g>
</g>
<g>
</g>
<g>
</g>
<g>
</g>
<g>
</g>
<g>
</g>
<g>
</g>
<g>
</g>
<g>
</g>
<g>
</g>
<g>
</g>
</svg>
