<svg width="14" height="13" viewBox="0 0 14 13" fill="none" xmlns="http://www.w3.org/2000/svg">
<path d="M8.91602 0.5C8.6508 0.5 8.39644 0.605357 8.20891 0.792893C8.02137 0.98043 7.91602 1.23478 7.91602 1.5V3.5C7.91602 3.76522 8.02137 4.01957 8.20891 4.20711C8.39644 4.39464 8.6508 4.5 8.91602 4.5V6L10.716 4.5H12.916C13.1812 4.5 13.4356 4.39464 13.6231 4.20711C13.8107 4.01957 13.916 3.76522 13.916 3.5V1.5C13.916 1.23478 13.8107 0.98043 13.6231 0.792893C13.4356 0.605357 13.1812 0.5 12.916 0.5H8.91602ZM4.41602 3C3.88558 3 3.37687 3.21071 3.0018 3.58579C2.62673 3.96086 2.41602 4.46957 2.41602 5C2.41602 5.53043 2.62673 6.03914 3.0018 6.41421C3.37687 6.78929 3.88558 7 4.41602 7C4.94645 7 5.45516 6.78929 5.83023 6.41421C6.2053 6.03914 6.41602 5.53043 6.41602 5C6.41602 4.46957 6.2053 3.96086 5.83023 3.58579C5.45516 3.21071 4.94645 3 4.41602 3V3ZM6.91602 8H1.91602C1.51819 8 1.13666 8.15804 0.855356 8.43934C0.574051 8.72064 0.416016 9.10218 0.416016 9.5C0.416016 10.616 0.875016 11.51 1.62802 12.115C2.36902 12.71 3.36302 13 4.41602 13C5.46902 13 6.46302 12.71 7.20402 12.115C7.95702 11.51 8.41602 10.616 8.41602 9.5C8.41602 9.10218 8.25798 8.72064 7.97668 8.43934C7.69537 8.15804 7.31384 8 6.91602 8V8Z" fill="#C4C4C4"/>
</svg>
