<svg width="109" height="235" viewBox="0 0 109 235" fill="none" xmlns="http://www.w3.org/2000/svg">
<path d="M50.9536 234.308C55.5821 234.308 59.3343 230.556 59.3343 225.928C59.3343 221.299 55.5821 217.547 50.9536 217.547C46.3251 217.547 42.573 221.299 42.573 225.928C42.573 230.556 46.3251 234.308 50.9536 234.308Z" fill="#F9A826"/>
<path d="M51.9582 176.142C80.5099 176.142 103.656 152.997 103.656 124.445C103.656 95.8931 80.5099 72.7473 51.9582 72.7473C23.4064 72.7473 0.260651 95.8931 0.260651 124.445C0.260651 152.997 23.4064 176.142 51.9582 176.142Z" fill="#F9A826"/>
<path d="M52.4637 208.484L36.1311 180.584L19.7984 152.684L52.127 152.49L84.4555 152.295L68.4596 180.39L52.4637 208.484Z" fill="#F9A826"/>
<path d="M52.3732 142.668C62.6171 142.668 70.9215 134.364 70.9215 124.12C70.9215 113.876 62.6171 105.571 52.3732 105.571C42.1292 105.571 33.8249 113.876 33.8249 124.12C33.8249 134.364 42.1292 142.668 52.3732 142.668Z" fill="white"/>
<path d="M50.7624 0.26564C50.7624 0.26564 39.7002 -2.85047 36.4283 12.2627C33.1564 27.3758 35.2345 25.4716 35.2345 25.4716L59.9297 22.5892C59.9297 22.5892 67.3557 4.86189 50.7624 0.26564Z" fill="#2F2E41"/>
<path d="M34.6747 66.5674C34.6747 66.5674 17.9856 67.3399 20.8757 73.8909C21.08 74.3539 21.2702 74.7878 21.4463 75.1925C23.5122 79.9374 25.8902 84.5403 28.5646 88.9708L38.822 105.966L42.5545 103.893L32.0509 76.5883L41.492 75.8177L34.6747 66.5674Z" fill="#FFB6B6"/>
<path d="M78.6782 73.5055L84.0731 85.2587C84.0731 85.2587 88.1193 89.3049 92.5508 105.49C96.9823 121.674 97.9457 121.096 97.9457 121.096L93.5655 122.555L75.5954 89.8829L66.7323 78.7078L69.4298 72.7348L78.6782 73.5055Z" fill="#FFB6B6"/>
<path d="M75.776 57.3235L83.5283 71.7523C83.5283 71.7523 101.104 106.289 99.2878 106.174C97.2458 106.045 91.5102 108.426 89.7491 110.736C88.8991 111.852 76.478 84.6088 72.1151 78.5177L62.674 71.1961C62.674 71.1961 35.8679 75.7078 35.8351 74.2407C35.819 73.522 44.71 90.7642 42.8854 90.0002C40.8068 89.1298 35.917 93.3651 33.7614 92.4885C32.8721 92.1268 26.5877 76.8902 24.0438 70.6466C23.7247 69.8672 23.7081 68.9967 23.9973 68.2058C24.2865 67.4148 24.8606 66.7603 25.6072 66.3706C27.519 65.3763 54.0829 59.3106 54.0829 59.3106L53.6183 56.9381L55.5451 53.0846L75.776 57.3235Z" fill="#2F2E41"/>
<path d="M56.2306 17.484C56.8954 13.3875 54.1134 9.5278 50.017 8.86304C45.9205 8.19829 42.0608 10.9802 41.396 15.0767C40.7313 19.1732 43.5132 23.0329 47.6097 23.6977C51.7062 24.3624 55.5659 21.5805 56.2306 17.484Z" fill="#FFB6B6"/>
<path d="M72.8293 61.176C73.2442 62.4208 70.557 63.1358 66.8114 62.4364C63.5706 61.8314 60.0235 61.1127 57.2258 60.5308C54.2297 59.9065 52.0891 59.4403 52.0891 59.4403C52.0891 59.4403 51.3184 64.2571 48.8136 63.6791C46.6557 63.182 40.2069 40.6564 38.4631 34.431C38.3357 33.9765 38.3603 33.4927 38.5331 33.0534C38.706 32.6141 39.0177 32.2434 39.4207 31.9975L48.278 26.5891C48.278 26.5891 54.3819 24.4928 56.6073 24.4331C58.8327 24.3734 62.6862 23.7954 62.6862 23.7954C62.6862 23.7954 67.1178 24.1807 67.8885 27.4562C68.6592 30.7316 71.8751 50.1522 71.9346 54.816C71.9999 59.9318 71.5851 57.4435 72.8293 61.176Z" fill="#CACACA"/>
<path d="M51.6229 6.62842C51.6229 6.62842 48.5068 14.8861 40.8724 18.3138L39.6259 10.991L51.6229 6.62842Z" fill="#2F2E41"/>
<path d="M56.1353 15.414C56.7205 15.414 57.195 14.5082 57.195 13.3909C57.195 12.2736 56.7205 11.3678 56.1353 11.3678C55.55 11.3678 55.0756 12.2736 55.0756 13.3909C55.0756 14.5082 55.55 15.414 56.1353 15.414Z" fill="#FFB6B6"/>
<path d="M45.6603 107.893L30.7647 114.741L30.6781 114.553C29.9712 113.015 29.9041 111.259 30.4915 109.672C31.0788 108.085 32.2726 106.796 33.8101 106.089L33.8105 106.089L42.9082 101.907L45.6603 107.893Z" fill="#2F2E41"/>
<path d="M91.3448 121.574L100.482 117.478L100.482 117.478C102.027 116.786 103.783 116.736 105.364 117.338C106.946 117.941 108.223 119.147 108.915 120.691L109 120.88L94.04 127.586L91.3448 121.574Z" fill="#2F2E41"/>
<path opacity="0.2" d="M66.6083 43.3428L64.864 62.5283L67.9648 62.6747L66.6083 43.3428Z" fill="black"/>
<path d="M54.4491 79.184C54.8187 78.7714 55.0933 78.2828 55.2536 77.7526C55.4139 77.2224 55.4561 76.6635 55.377 76.1153C55.298 75.567 55.0997 75.0428 54.7961 74.5795C54.4925 74.1162 54.0911 73.7251 53.62 73.4337L46.9185 39.5815L39.2229 42.5257L48.23 74.8755C47.793 75.6993 47.6733 76.6549 47.8937 77.561C48.1141 78.4672 48.6593 79.261 49.4259 79.7921C50.1925 80.3232 51.1272 80.5546 52.053 80.4425C52.9789 80.3305 53.8314 79.8827 54.4491 79.184Z" fill="#FFB6B6"/>
<path d="M48.614 45.2868L40.1639 46.7752C39.9234 46.8175 39.6767 46.8075 39.4405 46.7459C39.2042 46.6843 38.984 46.5725 38.7949 46.4182C38.6058 46.2638 38.4522 46.0705 38.3445 45.8514C38.2368 45.6323 38.1776 45.3925 38.171 45.1485L37.9377 36.5974C37.7279 35.366 38.015 34.1016 38.736 33.0815C39.457 32.0615 40.5531 31.369 41.784 31.1559C43.0148 30.9428 44.28 31.2266 45.3019 31.9449C46.3239 32.6632 47.0193 33.7575 47.2356 34.9878L49.9312 43.0771C50.0083 43.3088 50.0346 43.5543 50.0083 43.797C49.9819 44.0397 49.9036 44.2739 49.7786 44.4836C49.6536 44.6933 49.4849 44.8736 49.2839 45.0122C49.0829 45.1508 48.8544 45.2445 48.614 45.2868H48.614Z" fill="#CACACA"/>
<path d="M60.928 78.5884C61.4104 78.3161 61.8272 77.9414 62.1491 77.4906C62.4709 77.0398 62.69 76.5239 62.791 75.9793C62.8919 75.4347 62.8721 74.8745 62.7332 74.3383C62.5942 73.8021 62.3393 73.303 61.9866 72.8759L66.4941 38.6624L58.2607 38.9835L56.4189 72.5133C55.7408 73.1534 55.321 74.0201 55.2392 74.9491C55.1574 75.8781 55.4192 76.8048 55.9751 77.5537C56.5309 78.3025 57.342 78.8214 58.2549 79.0122C59.1678 79.2029 60.1189 79.0521 60.928 78.5884V78.5884Z" fill="#FFB6B6"/>
<path d="M66.2705 44.6102L57.7893 43.3103C57.548 43.2733 57.3175 43.1847 57.1135 43.0506C56.9095 42.9165 56.7368 42.74 56.6072 42.5331C56.4775 42.3263 56.394 42.0939 56.3623 41.8518C56.3305 41.6098 56.3513 41.3637 56.4233 41.1304L58.9443 32.9561C59.1405 31.7225 59.8178 30.6169 60.8278 29.882C61.8379 29.147 63.0982 28.8425 64.3323 29.0354C65.5665 29.2283 66.6739 29.9027 67.4115 30.9108C68.1492 31.9189 68.4569 33.1783 68.2674 34.413L68.2267 42.9395C68.2255 43.1836 68.1716 43.4246 68.0689 43.6461C67.9661 43.8675 67.8168 44.0642 67.6311 44.2228C67.4455 44.3813 67.2279 44.498 66.9931 44.5648C66.7583 44.6317 66.5118 44.6471 66.2705 44.6102V44.6102Z" fill="#CACACA"/>
</svg>
