<svg width="314" height="504" viewBox="0 0 314 504" fill="none" xmlns="http://www.w3.org/2000/svg">
<path d="M192.841 4.47992C177.161 -0.000579834 150.841 -1.12168 134.603 1.67912C37.1616 19.6011 -26.6774 118.719 11.4026 208.319C54.5236 309.119 108.844 405.439 157.003 503.999C205.163 405.44 259.483 309.679 302.603 208.879C339.001 123.199 283.001 29.6791 192.843 4.47912L192.841 4.47992ZM157.001 247.52C109.962 247.52 71.8796 208.879 71.8796 161.282C71.8796 113.68 109.962 75.6019 157.001 75.6019C204.04 75.6019 242.122 114.243 242.122 161.84C242.122 209.442 204.04 247.52 157.001 247.52Z" fill="white"/>
</svg>
