<svg width="54" height="54" viewBox="0 0 54 54" fill="none" xmlns="http://www.w3.org/2000/svg">
<path d="M6.16992 28.6875H35.3848C35.877 28.6875 36.2812 28.5205 36.5977 28.1865C36.9141 27.8525 37.0723 27.4482 37.0723 26.9736C37.0723 26.499 36.9141 26.1035 36.5977 25.7871C36.2812 25.4707 35.877 25.3125 35.3848 25.3125H6.27539L12.3926 19.1953C12.709 18.8789 12.8672 18.4834 12.8672 18.0088C12.8672 17.5342 12.709 17.1387 12.3926 16.8223C12.1465 16.6113 11.8828 16.4619 11.6016 16.374C11.3203 16.2861 11.0303 16.2861 10.7314 16.374C10.4326 16.4619 10.1777 16.6113 9.9668 16.8223L0 27.0527L9.9668 37.2832C10.1426 37.4238 10.3359 37.5381 10.5469 37.626C10.7578 37.7139 10.9688 37.7578 11.1797 37.7578C11.6367 37.7578 12.041 37.5996 12.3926 37.2832C12.498 37.1777 12.5859 37.0547 12.6562 36.9141C12.7266 36.7734 12.7793 36.6328 12.8145 36.4922C12.8496 36.3516 12.8672 36.2109 12.8672 36.0703C12.8672 35.9297 12.8496 35.7891 12.8145 35.6484C12.7793 35.5078 12.7266 35.3672 12.6562 35.2266C12.5859 35.0859 12.498 34.9629 12.3926 34.8574L6.16992 28.6875ZM50.625 0H21.9375C20.9883 0 20.1885 0.325195 19.5381 0.975586C18.8877 1.62598 18.5625 2.42578 18.5625 3.375V18.5625H21.9375V5.43164C21.9375 5.08008 22.0254 4.74609 22.2012 4.42969C22.377 4.11328 22.623 3.8584 22.9395 3.66504C23.2559 3.47168 23.6074 3.375 23.9941 3.375H48.5156C49.0781 3.375 49.5527 3.57715 49.9395 3.98145C50.3262 4.38574 50.5195 4.86914 50.5195 5.43164L50.5723 48.5684C50.5723 49.1309 50.3789 49.6143 49.9922 50.0186C49.6055 50.4229 49.1309 50.625 48.5684 50.625H23.9941C23.4316 50.625 22.9482 50.4229 22.5439 50.0186C22.1396 49.6143 21.9375 49.1309 21.9375 48.5684V35.3848H18.5625V50.625C18.5625 51.5742 18.8877 52.374 19.5381 53.0244C20.1885 53.6748 20.9883 54 21.9375 54H50.625C50.8359 54 51.0557 53.9736 51.2842 53.9209C51.5127 53.8682 51.7236 53.8066 51.917 53.7363C52.1104 53.666 52.3037 53.5693 52.4971 53.4463C52.6904 53.3232 52.8574 53.1826 52.998 53.0244C53.1387 52.8662 53.2705 52.6992 53.3936 52.5234C53.5166 52.3477 53.6221 52.1543 53.71 51.9434C53.7979 51.7324 53.8682 51.5215 53.9209 51.3105C53.9736 51.0996 54 50.8711 54 50.625V3.375C54 2.00391 53.3848 1.00195 52.1543 0.369141C51.6621 0.123047 51.1523 0 50.625 0Z" fill="#c4c4c4"/>
</svg>
