<svg width="20" height="20" viewBox="0 0 20 20" fill="none" xmlns="http://www.w3.org/2000/svg">
<path d="M18.7489 10.0002L19.8529 8.09218C19.9856 7.86262 20.0217 7.58977 19.9532 7.33361C19.8848 7.07745 19.7174 6.85896 19.4879 6.72618L17.5779 5.62218V3.42218C17.5779 3.15696 17.4725 2.90261 17.285 2.71507C17.0975 2.52754 16.8431 2.42218 16.5779 2.42218H14.3789L13.2759 0.51318C13.1427 0.284096 12.9246 0.116685 12.6689 0.0471795C12.5421 0.0127954 12.4097 0.00392933 12.2794 0.0210951C12.1491 0.0382609 12.0235 0.0811172 11.9099 0.14718L9.99989 1.25118L8.08989 0.14618C7.86021 0.0135772 7.58726 -0.0223574 7.33109 0.0462805C7.07492 0.114918 6.8565 0.282507 6.72389 0.51218L5.61989 2.42218H3.42089C3.15567 2.42218 2.90132 2.52754 2.71378 2.71507C2.52625 2.90261 2.42089 3.15696 2.42089 3.42218V5.62118L0.510889 6.72518C0.396921 6.79074 0.297029 6.87816 0.216953 6.98244C0.136877 7.08672 0.0781948 7.20579 0.0442776 7.33282C0.0103605 7.45985 0.00187703 7.59232 0.0193147 7.72264C0.0367524 7.85295 0.0797673 7.97854 0.145889 8.09218L1.24989 10.0002L0.145889 11.9082C0.0138773 12.138 -0.0219395 12.4106 0.0462469 12.6667C0.114433 12.9227 0.281093 13.1415 0.509889 13.2752L2.41989 14.3792V16.5782C2.41989 16.8434 2.52525 17.0977 2.71278 17.2853C2.90032 17.4728 3.15467 17.5782 3.41989 17.5782H5.61989L6.72389 19.4882C6.81242 19.6395 6.93882 19.7652 7.09067 19.8529C7.24251 19.9405 7.41456 19.9872 7.58989 19.9882C7.76389 19.9882 7.93689 19.9422 8.09089 19.8532L9.99889 18.7492L11.9089 19.8532C12.1385 19.9856 12.4113 20.0215 12.6674 19.9531C12.9234 19.8847 13.1419 19.7175 13.2749 19.4882L14.3779 17.5782H16.5769C16.8421 17.5782 17.0965 17.4728 17.284 17.2853C17.4715 17.0977 17.5769 16.8434 17.5769 16.5782V14.3792L19.4869 13.2752C19.6007 13.2094 19.7004 13.1219 19.7803 13.0176C19.8602 12.9133 19.9188 12.7943 19.9527 12.6673C19.9866 12.5404 19.9951 12.408 19.9778 12.2777C19.9605 12.1475 19.9177 12.0219 19.8519 11.9082L18.7489 10.0002ZM7.49889 4.99018C7.89685 4.99031 8.27845 5.14853 8.55976 5.43002C8.84106 5.71151 8.99902 6.09322 8.99889 6.49118C8.99876 6.88914 8.84054 7.27074 8.55905 7.55205C8.27756 7.83335 7.89585 7.99131 7.49789 7.99118C7.09993 7.99105 6.71833 7.83283 6.43702 7.55134C6.15572 7.26985 5.99776 6.88814 5.99789 6.49018C5.99802 6.09222 6.15624 5.71062 6.43773 5.42931C6.71922 5.14801 7.10093 4.99005 7.49889 4.99018V4.99018ZM7.79889 14.5902L6.19889 13.3912L12.1989 5.39118L13.7989 6.59018L7.79889 14.5902ZM12.4989 14.9902C12.3018 14.9901 12.1067 14.9512 11.9247 14.8758C11.7427 14.8003 11.5773 14.6897 11.438 14.5503C11.2987 14.411 11.1883 14.2455 11.1129 14.0634C11.0376 13.8814 10.9988 13.6862 10.9989 13.4892C10.999 13.2921 11.0378 13.097 11.1133 12.915C11.1888 12.733 11.2993 12.5676 11.4387 12.4283C11.5781 12.289 11.7436 12.1786 11.9256 12.1032C12.1077 12.0279 12.3028 11.9891 12.4999 11.9892C12.8978 11.9893 13.2795 12.1475 13.5608 12.429C13.8421 12.7105 14 13.0922 13.9999 13.4902C13.9998 13.8881 13.8415 14.2697 13.56 14.551C13.2786 14.8324 12.8968 14.9903 12.4989 14.9902V14.9902Z" fill="#c4c4c4"/>
</svg>
