<?xml version="1.0" standalone="no"?>
<!DOCTYPE svg PUBLIC "-//W3C//DTD SVG 20010904//EN"
 "http://www.w3.org/TR/2001/REC-SVG-20010904/DTD/svg10.dtd">
<svg version="1.0" xmlns="http://www.w3.org/2000/svg"
 width="224.000000pt" height="225.000000pt" viewBox="0 0 224.000000 225.000000"
 preserveAspectRatio="xMidYMid meet">

<g transform="translate(0.000000,225.000000) scale(0.100000,-0.100000)"
fill="#000000" stroke="none">
<path d="M95 2231 c-40 -25 -71 -60 -84 -94 -8 -19 -11 -340 -11 -1013 0 -803
2 -991 13 -1017 8 -18 33 -49 56 -70 l41 -37 1003 0 1003 0 35 25 c18 14 44
43 56 63 l23 37 0 1000 0 1001 -26 39 c-14 22 -38 49 -52 60 -27 20 -45 20
-1027 23 -962 2 -1001 1 -1030 -17z m2021 -57 c56 -38 54 10 54 -1051 0 -951
-1 -979 -20 -1010 -10 -17 -29 -37 -42 -45 -17 -9 -167 -14 -623 -20 -698 -10
-585 -10 -1005 0 -308 7 -337 9 -364 27 -58 39 -56 0 -56 1048 0 691 3 973 11
996 7 18 26 41 43 52 30 18 65 19 1004 19 887 0 975 -1 998 -16z"/>
<path d="M1025 1819 c-145 -22 -259 -80 -365 -188 -126 -128 -190 -282 -190
-461 0 -182 64 -334 195 -465 132 -132 262 -185 457 -185 185 0 331 62 457
195 195 206 237 511 104 768 -52 102 -174 222 -274 270 -124 61 -262 85 -384
66z"/>
</g>
</svg>
