<?xml version="1.0" standalone="no"?>
<!DOCTYPE svg PUBLIC "-//W3C//DTD SVG 20010904//EN"
 "http://www.w3.org/TR/2001/REC-SVG-20010904/DTD/svg10.dtd">
<svg version="1.0" xmlns="http://www.w3.org/2000/svg"
 width="713.000000pt" height="350.000000pt" viewBox="0 0 713.000000 350.000000"
 preserveAspectRatio="xMidYMid meet">

<g transform="translate(0.000000,350.000000) scale(0.100000,-0.100000)"
fill="#000" stroke="none">
<path fill="#000" d="M3443 2935 c-29 -15 -68 -44 -86 -66 -19 -21 -38 -39 -43 -39 -5 0
-29 16 -53 35 -87 69 -154 66 -287 -15 -149 -91 -205 -106 -279 -76 -32 14
-35 13 -40 -5 -9 -26 3 -77 26 -114 37 -61 133 -92 204 -65 14 5 61 43 104 84
93 89 115 96 229 71 l78 -17 12 -43 c22 -84 90 -134 200 -149 47 -7 46 -8 31
45 -17 55 4 84 73 99 62 13 79 24 101 67 23 44 21 94 -5 133 -39 57 -71 74
-146 78 -57 3 -75 -1 -119 -23z"/>
<path fill="#000" d="M4275 2230 c-55 -22 -109 -40 -120 -41 -12 -1 -5 -6 20 -14 22 -7 59
-11 81 -8 33 4 46 1 63 -16 29 -29 27 -72 -6 -110 -33 -37 -65 -40 -90 -7 -13
18 -32 26 -72 31 -43 6 -53 5 -49 -6 3 -8 20 -56 38 -106 18 -51 36 -93 41
-93 5 0 45 14 91 30 45 17 85 30 90 30 4 0 8 -24 8 -54 0 -36 8 -71 25 -108
122 -267 -29 -616 -315 -728 -49 -19 -57 -20 -80 -7 -29 17 -147 31 -154 18
-3 -4 -33 -11 -66 -14 -72 -8 -101 4 -149 59 -50 56 -55 77 -55 229 -1 135 -2
142 -31 200 -50 100 -63 105 -281 105 l-184 0 -82 73 c-46 40 -91 78 -100 85
-27 21 -58 5 -78 -43 -15 -35 -24 -44 -52 -49 -58 -11 -135 -53 -177 -96 -46
-48 -50 -60 -20 -60 70 0 112 -96 74 -170 -11 -22 -12 -29 -2 -33 7 -2 -8 -23
-36 -52 -75 -74 -127 -194 -127 -292 0 -148 87 -303 214 -377 49 -29 147 -59
186 -57 87 3 177 22 226 47 92 47 179 153 217 266 5 14 16 10 72 -27 116 -78
163 -88 440 -93 330 -5 425 17 544 124 l50 45 6 -38 c23 -143 126 -267 250
-304 25 -7 45 -17 45 -21 0 -4 34 -8 76 -8 47 0 73 4 69 10 -3 6 3 10 15 10
38 0 125 48 173 97 73 73 101 139 105 248 5 129 -18 188 -109 278 l-69 67 51
0 c49 0 51 1 45 25 -29 115 -128 196 -244 199 -32 0 -73 -2 -93 -7 l-36 -7
-12 105 c-13 119 -41 219 -78 282 -24 42 -88 106 -114 115 -12 4 -12 7 -1 21
12 14 8 19 -27 37 -55 28 -93 87 -99 154 -2 30 1 63 7 75 16 29 6 27 -114 -19z
m-865 -925 c54 -58 11 -135 -75 -135 -39 0 -46 4 -60 30 -8 16 -38 52 -65 80
l-51 50 114 0 c108 0 115 -1 137 -25z m-421 -260 c44 -50 43 -95 -3 -141 -28
-28 -42 -34 -76 -34 -34 0 -48 6 -76 34 -46 46 -47 91 -3 141 27 31 37 35 79
35 42 0 52 -4 79 -35z m1882 -64 c37 -37 38 -79 4 -119 -30 -35 -74 -48 -107
-31 -61 31 -76 97 -32 148 36 43 93 44 135 2z"/>
<path fill="#f9a826" d="M2962 2066 c-57 -13 -108 -29 -113 -37 -18 -26 12 -143 38 -153 17
-7 211 28 251 44 25 11 28 45 12 114 -14 64 -28 67 -188 32z m128 -45 c0 -9
-40 -19 -144 -37 -30 -5 -38 -4 -34 7 8 23 178 52 178 30z m-32 -43 c-5 -14
-85 -35 -95 -24 -10 9 2 17 39 26 49 12 60 11 56 -2z"/>
<path fill="#f9a826" d="M3306 1828 c-18 -70 10 -135 74 -172 19 -11 133 -50 255 -87 158 -48
221 -71 223 -82 2 -9 -31 -94 -73 -188 -42 -95 -74 -177 -71 -184 10 -28 135
-33 179 -7 39 23 199 375 200 438 1 69 -24 91 -222 197 -100 53 -183 97 -185
97 -2 0 -1 -11 1 -24 4 -20 -3 -30 -37 -52 -80 -53 -188 -34 -287 51 -23 19
-43 35 -46 35 -3 0 -7 -10 -11 -22z"/>
</g>
</svg>
