<svg width="236" height="236" viewBox="0 0 236 236" fill="none" xmlns="http://www.w3.org/2000/svg">
<path d="M232.721 196.242L199.447 229.249C194.536 234.286 188.026 235.992 181.685 236C153.646 235.16 127.143 221.387 105.382 207.244C69.6633 181.259 36.8896 149.038 16.3202 110.1C8.43114 93.7724 -0.825571 72.9393 0.0588387 54.7144C0.137702 47.8586 1.98519 41.1301 6.81355 36.711L40.0868 3.45442C46.9961 -2.42257 53.6778 -0.390608 58.0993 6.45497L84.8678 57.215C87.6852 63.2285 86.069 69.6717 81.8655 73.9687L69.6069 86.221C68.8501 87.2576 68.3682 88.4376 68.3561 89.7219C73.0568 107.918 87.2976 124.689 99.878 136.231C112.458 147.773 125.981 163.41 143.533 167.112C145.703 167.717 148.361 167.929 149.913 166.486L164.173 151.984C169.089 148.258 176.187 146.437 181.435 149.483H181.685L229.969 177.989C237.057 182.432 237.796 191.018 232.721 196.242V196.242Z" fill="#c4c4c4c4"/>
</svg>
