<svg fill="none" xmlns="http://www.w3.org/2000/svg" viewBox="0 0 40 40"><path fill-rule="evenodd" clip-rule="evenodd" d="M20 38c9.941 0 18-8.059 18-18S29.941 2 20 2 2 10.059 2 20s8.059 18 18 18Zm0 2c11.046 0 20-8.954 20-20S31.046 0 20 0 0 8.954 0 20s8.954 20 20 20Z" fill="#c4c4c4c4"/><path d="M8 31.63c0-1.033.772-1.906 1.8-2.02 7.715-.854 12.72-.777 20.418.019a1.99 1.99 0 0 1 1.108 3.472c-9.085 7.919-14.277 7.81-22.686.008-.41-.38-.64-.92-.64-1.478v-.001Z" fill="#c4c4c4c4"/><path fill-rule="evenodd" clip-rule="evenodd" d="M30.115 30.623c-7.637-.79-12.57-.864-20.206-.019A1.028 1.028 0 0 0 9 31.631c0 .286.119.557.32.745 4.168 3.866 7.326 5.613 10.413 5.624 3.098.011 6.426-1.722 10.936-5.652a.99.99 0 0 0-.554-1.724v-.001ZM9.69 28.616c7.796-.863 12.874-.785 20.632.018a2.99 2.99 0 0 1 1.662 5.221c-4.575 3.988-8.385 6.16-12.257 6.145-3.883-.014-7.525-2.223-11.766-6.158A3.018 3.018 0 0 1 7 31.63a3.028 3.028 0 0 1 2.69-3.015v.001Z" fill="#c4c4c4c4"/><path d="M28 16a8 8 0 1 1-16.001 0A8 8 0 0 1 28 16Z" fill="#c4c4c4c4"/><path fill-rule="evenodd" clip-rule="evenodd" d="M20 22a6 6 0 1 0 0-12 6 6 0 0 0 0 12Zm0 2a8 8 0 1 0 0-16.001A8 8 0 0 0 20 24Z" fill="#c4c4c4c4"/></svg>