<svg xmlns="http://www.w3.org/2000/svg" viewBox="0 0 24 24"><path fill="#c4c4c4c4" d="M12 2c5.514 0 10 4.486 10 10s-4.486 10-10 10S2 17.514 2 12 6.486 2 12 2zm0-2C5.373 0 0 5.373 0 12s5.373 12 12 12 12-5.373 12-12S18.627 0 12 0zm0 3c-4.971 0-9 4.029-9 9s4.029 9 9 9 9-4.029 9-9-4.029-9-9-9zm1 13.947V18h-1v-.998c-1.035-.018-2.106-.265-3-.727l.455-1.644c.956.371 2.229.765 3.225.54 1.149-.26 1.385-1.442.114-2.011-.931-.434-3.778-.805-3.778-3.243 0-1.363 1.039-2.583 2.984-2.85V6h1v1.018c.725.019 1.535.145 2.442.42l-.362 1.648c-.768-.27-1.616-.515-2.442-.465-1.489.087-1.62 1.376-.581 1.916 1.711.804 3.943 1.401 3.943 3.546.002 1.718-1.344 2.632-3 2.864z" ></path></svg>