<?xml version="1.0" standalone="no"?>
<!DOCTYPE svg PUBLIC "-//W3C//DTD SVG 20010904//EN"
 "http://www.w3.org/TR/2001/REC-SVG-20010904/DTD/svg10.dtd">
<svg version="1.0" xmlns="http://www.w3.org/2000/svg"
 width="570.000000pt" height="438.000000pt" viewBox="0 0 570.000000 438.000000"
 preserveAspectRatio="xMidYMid meet">

<g transform="translate(0.000000,438.000000) scale(0.100000,-0.100000)"
fill="#000000" stroke="none">
<path d="M3795 3930 c-44 -18 -86 -84 -84 -133 0 -21 1 -21 9 -2 4 11 20 31
34 44 l26 25 37 -40 c30 -32 38 -36 41 -21 3 14 11 10 50 -24 50 -44 108 -77
118 -67 3 4 10 25 15 49 17 74 -16 131 -93 164 -40 16 -120 19 -153 5z"/>
<path d="M3581 3904 c-30 -25 -36 -42 -44 -136 -4 -47 -4 -48 22 -42 52 12 85
40 126 109 43 70 43 70 22 82 -38 21 -92 16 -126 -13z"/>
<path d="M4093 3860 c-31 -13 -29 -27 13 -98 41 -69 64 -87 119 -98 35 -6 37
-6 26 14 -6 11 -11 45 -11 74 0 47 -4 58 -28 82 -32 29 -84 41 -119 26z"/>
<path d="M2532 3781 c-94 -32 -162 -123 -162 -215 0 -25 3 -46 8 -46 4 0 15
20 26 45 21 53 66 90 117 100 33 6 37 4 48 -23 14 -33 35 -46 101 -63 58 -14
67 -22 75 -69 8 -45 19 -57 60 -62 36 -4 45 -36 20 -75 -13 -19 -23 -24 -45
-21 -24 4 -31 0 -41 -24 -6 -15 -29 -44 -51 -64 -39 -35 -39 -36 -21 -56 33
-37 73 -51 130 -46 81 7 110 36 177 175 19 38 21 107 5 151 -12 34 -63 72 -97
72 -16 0 -22 9 -27 43 -16 93 -71 156 -161 183 -62 18 -98 17 -162 -5z"/>
<path d="M3374 3759 c-3 -6 -1 -16 5 -22 9 -9 14 -8 21 3 9 15 4 30 -10 30 -5
0 -12 -5 -16 -11z"/>
<path d="M3216 3752 c-2 -4 -1 -14 4 -22 7 -11 12 -12 21 -3 6 6 8 16 5 22 -8
13 -23 14 -30 3z"/>
<path d="M3760 3720 c0 -5 5 -10 10 -10 6 0 10 5 10 10 0 6 -4 10 -10 10 -5 0
-10 -4 -10 -10z"/>
<path d="M3865 3709 c-10 -15 3 -25 16 -12 7 7 7 13 1 17 -6 3 -14 1 -17 -5z"/>
<path d="M2040 3585 c0 -16 -18 -21 -94 -28 -26 -3 -55 -12 -65 -22 -15 -15
-14 -18 13 -41 26 -23 35 -25 80 -19 65 9 120 35 124 59 2 10 0 16 -6 12 -5
-3 -13 5 -16 18 -7 27 -36 44 -36 21z"/>
<path d="M2436 3527 c-15 -11 -12 -12 23 -9 23 2 38 8 35 13 -8 13 -37 11 -58
-4z"/>
<path d="M2623 3510 c16 -5 36 -14 45 -22 13 -9 12 -7 -2 10 -11 13 -30 22
-45 21 l-26 -1 28 -8z"/>
<path d="M2454 3489 c-8 -14 11 -33 25 -25 6 4 11 11 11 16 0 13 -29 20 -36 9z"/>
<path d="M2605 3469 c-10 -15 1 -23 20 -15 9 3 13 10 10 16 -8 13 -22 13 -30
-1z"/>
<path d="M4640 3410 c-44 -44 -7 -118 52 -106 17 3 36 6 43 6 21 0 13 89 -10
106 -27 20 -62 17 -85 -6z m85 -10 c41 -46 -29 -116 -75 -75 -24 22 -26 58 -4
79 21 22 57 20 79 -4z"/>
<path d="M4640 3365 c0 -8 9 -15 20 -15 11 0 20 7 20 15 0 8 -9 15 -20 15 -11
0 -20 -7 -20 -15z"/>
<path d="M2087 3403 c-3 -5 8 -8 25 -9 20 -1 25 2 16 7 -16 11 -35 11 -41 2z"/>
<path d="M1939 3383 c-11 -13 -11 -15 -1 -9 8 5 26 12 40 16 l27 8 -26 1 c-15
1 -33 -7 -40 -16z"/>
<path d="M4496 3371 c-7 -11 18 -33 27 -24 4 3 7 12 7 20 0 15 -26 18 -34 4z"/>
<path d="M2090 3350 c0 -5 7 -10 15 -10 8 0 15 5 15 10 0 6 -7 10 -15 10 -8 0
-15 -4 -15 -10z"/>
<path d="M1982 3339 c2 -6 8 -10 13 -10 5 0 11 4 13 10 2 6 -4 11 -13 11 -9 0
-15 -5 -13 -11z"/>
<path d="M4012 3306 c-17 -46 -102 -129 -165 -160 -63 -31 -157 -56 -213 -56
-41 0 -42 -1 -58 -47 -9 -26 -16 -48 -16 -49 0 -1 21 5 48 13 26 8 90 28 144
44 53 16 132 44 175 63 43 19 93 37 111 41 17 4 32 9 32 11 0 19 -33 161 -39
166 -4 5 -12 -7 -19 -26z"/>
<path d="M1697 3087 c-27 -84 -23 -102 21 -120 20 -8 54 -17 75 -21 31 -6 37
-11 37 -31 0 -21 5 -25 33 -25 17 0 57 -12 87 -26 30 -14 98 -39 150 -56 52
-16 120 -38 150 -48 30 -9 56 -17 57 -16 1 0 -1 13 -4 27 -4 24 -11 27 -71 37
-141 24 -254 108 -318 238 l-36 72 -62 11 c-100 18 -100 18 -119 -42z"/>
<path d="M1120 3115 c0 -8 9 -15 20 -15 11 0 20 7 20 15 0 8 -9 15 -20 15 -11
0 -20 -7 -20 -15z"/>
<path d="M962 3098 c7 -19 38 -22 38 -4 0 10 -9 16 -21 16 -12 0 -19 -5 -17
-12z"/>
<path d="M2797 2978 c-3 -68 -15 -166 -27 -218 -11 -52 -23 -107 -26 -122 -5
-20 -1 -29 14 -37 20 -10 24 -4 68 89 55 115 71 128 24 18 -50 -114 -68 -140
-90 -128 -24 13 -37 0 -74 -78 l-30 -62 -27 26 c-25 24 -36 27 -111 28 -98 2
-170 28 -443 162 -94 46 -178 84 -188 84 -9 0 -28 -5 -42 -12 -22 -10 -25 -17
-25 -66 0 -44 -3 -52 -13 -44 -10 9 -39 -16 -126 -109 -63 -66 -124 -127 -138
-136 -22 -14 -25 -14 -45 3 -31 28 -272 324 -293 361 -34 59 -42 49 -48 -65
-6 -111 -52 -401 -66 -415 -5 -5 -18 18 -31 50 -12 32 -70 156 -129 277 l-106
218 -52 -5 c-31 -3 -82 -21 -129 -44 -148 -73 -272 -225 -325 -396 -30 -97
-23 -256 16 -377 34 -106 86 -234 97 -238 4 -2 8 -10 8 -18 0 -9 5 -12 12 -8
6 4 45 11 87 16 42 4 92 11 113 14 44 7 78 -21 78 -65 0 -16 11 -53 25 -83
l25 -53 0 -507 0 -508 133 0 c125 0 224 14 292 40 22 9 26 13 15 20 -12 7 -11
16 8 57 12 26 32 80 45 118 21 68 22 77 12 258 l-10 187 -52 46 c-29 25 -53
51 -53 58 0 7 -78 92 -174 189 -96 97 -167 177 -159 177 13 0 13 2 2 17 -12
15 -12 16 5 10 17 -7 17 -6 5 10 -12 15 -12 16 4 10 15 -6 16 -4 6 14 -13 24
-6 22 49 -19 l32 -24 0 26 c0 42 15 30 28 -22 10 -37 24 -58 63 -92 71 -64
203 -150 210 -138 4 6 17 7 29 3 23 -7 23 -7 16 56 -31 291 -34 385 -21 552 7
92 15 171 19 174 3 3 27 -14 54 -39 68 -63 171 -138 191 -138 24 0 87 68 190
205 92 122 102 138 117 189 5 16 16 32 24 36 8 4 30 14 49 24 18 9 36 15 38
12 3 -3 -7 -21 -22 -40 l-27 -36 28 0 c15 0 51 13 80 30 45 25 58 28 80 20 25
-10 26 -14 22 -60 -5 -45 -3 -49 19 -54 12 -4 23 -12 23 -19 1 -27 19 -135 30
-176 l11 -43 47 7 c75 11 100 31 107 86 4 26 3 68 -1 94 l-7 48 56 -5 c47 -4
65 -12 112 -48 l56 -43 -27 -28 c-26 -27 -27 -31 -21 -111 13 -180 -27 -384
-95 -491 -49 -77 -167 -167 -219 -167 -14 0 -170 -162 -178 -184 -2 -6 -21
-30 -43 -52 -22 -23 -36 -44 -31 -47 11 -6 96 -24 208 -42 119 -19 402 -20
520 0 50 8 93 15 97 15 4 0 5 -15 2 -32 -2 -18 -13 -95 -24 -171 -24 -170 -25
-177 -2 -178 9 -1 -8 -7 -39 -13 -132 -29 -223 -127 -245 -264 -6 -41 -17 -52
-29 -32 -11 19 -25 10 -25 -16 0 -123 96 -225 242 -255 29 -6 56 -14 60 -18 3
-3 10 -28 13 -54 7 -48 7 -48 -19 -41 -22 5 -26 3 -26 -17 0 -13 -5 -31 -10
-39 -8 -12 -10 -11 -10 8 0 12 -2 22 -3 22 -2 0 -39 -9 -82 -20 -88 -22 -162
-26 -199 -9 -20 10 -30 9 -51 -5 -14 -9 -25 -23 -25 -31 0 -13 35 -15 240 -15
l240 0 -15 24 c-34 51 9 166 78 213 47 33 150 56 221 51 88 -7 121 5 153 55
l26 42 9 -30 c5 -16 6 -52 2 -79 -9 -69 -50 -111 -139 -143 -39 -13 -55 -22
-35 -19 52 9 141 57 164 88 13 19 22 51 25 98 l6 71 65 -50 65 -51 7 38 c20
113 31 321 20 404 -14 110 -38 157 -119 232 -36 33 -76 80 -90 104 -30 51 -28
60 40 142 27 33 51 76 61 109 9 29 21 60 27 67 20 24 61 16 96 -18 l33 -32 0
37 c0 31 4 37 20 37 37 0 74 -27 147 -104 47 -51 78 -76 93 -76 19 0 9 15 -60
90 l-82 90 17 27 c10 15 44 53 75 86 52 53 58 64 63 111 6 64 -17 140 -56 178
-32 32 -34 52 -6 72 14 9 19 20 15 34 -6 18 -8 18 -94 -5 -182 -51 -397 -40
-608 29 l-91 29 -23 67 c-13 37 -33 92 -45 122 -12 30 -25 63 -29 74 -6 17 -9
16 -44 -10 -20 -16 -43 -34 -50 -41 -8 -7 -18 -11 -23 -8 -14 9 -11 25 5 25 7
0 19 7 26 15 10 12 8 16 -11 24 -13 4 -31 6 -39 3 -8 -3 0 11 18 31 17 21 32
41 32 45 0 4 10 12 22 17 17 8 30 34 56 115 48 152 100 362 113 455 14 97 0
143 -53 175 -62 38 -64 34 -71 -102z m543 -1383 c-6 -45 -8 -93 -5 -107 6 -22
3 -27 -17 -33 -12 -4 -35 -16 -50 -27 -16 -11 -28 -16 -28 -13 0 10 40 164 55
215 8 25 20 65 26 90 l12 45 10 -45 c6 -31 6 -71 -3 -125z m114 2 c21 -32 75
-141 72 -144 -1 -1 -29 3 -63 9 l-61 11 -6 74 c-4 40 -4 78 -1 83 8 14 41 -5
59 -33z m-294 -257 c0 -8 -53 -110 -66 -128 -4 -6 -87 54 -113 81 -42 45 -25
57 84 57 58 0 95 -4 95 -10z m-10 -398 c0 -12 -61 -114 -66 -109 -2 2 4 34 13
70 15 58 19 64 35 56 10 -5 18 -13 18 -17z m-440 -343 c-6 -79 -14 -151 -16
-159 -8 -23 -52 57 -60 107 -7 51 14 120 52 170 14 19 28 32 30 30 3 -2 0 -69
-6 -148z"/>
<path d="M3893 2918 c-54 -28 -149 -77 -212 -108 l-114 -57 64 -16 c35 -8 87
-18 116 -22 l52 -7 -14 30 c-18 35 -7 77 23 86 10 4 38 -1 62 -9 23 -8 59 -15
79 -15 l36 1 -33 27 c-18 15 -32 33 -32 40 0 14 16 16 24 3 3 -5 20 -11 38
-13 18 -3 40 -8 49 -12 14 -6 19 2 29 43 7 28 9 58 6 66 -11 30 -72 17 -173
-37z"/>
<path d="M4672 2898 c-7 -7 -8 -16 -2 -23 7 -8 5 -28 -6 -58 -14 -42 -14 -48
1 -71 21 -32 26 -32 53 -3 21 23 22 25 6 70 -12 35 -13 51 -5 60 11 15 -3 37
-24 37 -6 0 -16 -5 -23 -12z"/>
<path d="M3967 2475 c4 -50 2 -79 -6 -88 -13 -17 -5 -47 14 -47 13 0 20 30 31
143 l7 67 -26 0 -27 0 7 -75z"/>
<path d="M3839 2477 c0 -1 -1 -18 -3 -37 -2 -19 -6 -44 -9 -55 -8 -25 8 -54
21 -40 16 17 20 123 5 129 -7 3 -13 4 -14 3z"/>
<path d="M2212 2138 c3 -25 25 -33 47 -19 12 8 12 12 2 25 -21 25 -53 21 -49
-6z"/>
<path d="M5210 1846 c-6 -8 -24 -16 -38 -18 -21 -2 -27 -8 -27 -28 0 -21 6
-26 35 -30 42 -7 31 -12 -79 -35 -81 -17 -98 -13 -62 14 24 19 27 61 4 69 -9
2 -13 -8 -13 -32 0 -25 -4 -36 -15 -36 -10 0 -15 10 -15 31 0 20 -4 29 -12 26
-7 -2 -12 -16 -11 -31 2 -28 -6 -33 -25 -14 -8 8 -15 4 -29 -19 -16 -29 -22
-31 -91 -36 -121 -9 -304 9 -372 37 l-60 24 1 -47 c0 -25 4 -126 8 -224 l9
-177 41 -63 c23 -34 56 -91 72 -127 24 -52 42 -73 85 -104 59 -43 65 -51 33
-43 -21 6 -21 5 2 -19 25 -26 20 -30 -14 -13 -22 12 -22 12 -3 -10 20 -22 9
-29 -14 -8 -12 10 -12 9 -1 -6 23 -29 5 -31 -32 -3 -42 33 -47 32 -47 -1 0
-40 -15 -17 -39 62 -12 39 -32 84 -46 100 l-25 30 0 -60 c0 -33 7 -159 15
-280 7 -121 19 -308 26 -415 8 -134 16 -199 25 -209 13 -14 136 -23 147 -11 3
3 17 109 31 235 14 127 39 349 56 495 28 254 50 497 50 568 0 29 3 33 23 30
28 -4 32 -33 47 -343 5 -126 17 -340 26 -475 8 -135 16 -328 17 -430 l2 -185
-63 -3 c-36 -2 -60 -7 -57 -12 8 -13 302 -13 310 -1 3 6 -19 11 -52 13 l-58 3
0 49 0 49 45 4 c25 3 45 5 46 6 2 2 8 59 59 507 56 486 58 515 87 938 11 173
13 183 35 197 27 18 29 37 7 59 -19 20 -28 20 -44 2z"/>
<path d="M3806 1843 c-11 -11 -6 -23 9 -23 8 0 15 4 15 9 0 13 -16 22 -24 14z"/>
<path d="M3946 1843 c-11 -11 -6 -23 9 -23 8 0 15 4 15 9 0 13 -16 22 -24 14z"/>
<path d="M5086 1813 c-12 -12 -6 -43 9 -43 8 0 15 9 15 19 0 21 -13 34 -24 24z"/>
<path d="M1520 1645 c0 -8 7 -15 15 -15 8 0 15 7 15 15 0 8 -7 15 -15 15 -8 0
-15 -7 -15 -15z"/>
<path d="M1650 1645 c0 -9 5 -15 11 -13 6 2 11 8 11 13 0 5 -5 11 -11 13 -6 2
-11 -4 -11 -13z"/>
<path d="M429 1625 c0 -11 -4 -69 -9 -130 -7 -93 -6 -112 6 -122 15 -11 14
-97 -12 -635 l-6 -127 69 -20 c78 -23 192 -51 211 -51 10 0 12 101 10 510 l-3
510 -32 32 c-27 27 -34 30 -48 18 -14 -11 -17 -10 -22 8 -7 27 -10 27 -34 0
l-18 -23 -1 22 c0 19 -7 22 -55 25 -49 3 -55 1 -56 -17z"/>
<path d="M1805 1485 c-30 -30 -50 -65 -37 -65 12 0 166 61 175 69 4 4 -19 11
-50 17 -57 9 -59 8 -88 -21z"/>
<path d="M3563 1285 c-8 -9 -9 -16 -3 -20 14 -8 30 3 30 21 0 18 -11 17 -27
-1z"/>
<path d="M3424 1281 c4 -6 2 -11 -3 -11 -6 0 -11 -4 -11 -10 0 -5 9 -10 21
-10 23 0 23 30 0 38 -8 3 -11 0 -7 -7z"/>
<path d="M3515 1241 c-41 -8 -43 -35 -6 -57 17 -10 31 -23 31 -28 0 -5 11 5
25 24 33 44 32 58 -2 53 -22 -4 -25 -2 -13 6 16 12 11 12 -35 2z"/>
<path d="M3662 980 l-42 -48 -3 -154 c-2 -139 -5 -160 -31 -232 -30 -85 -31
-130 -4 -270 l11 -58 49 6 c80 11 75 -1 80 192 3 96 8 177 11 180 2 3 35 0 73
-6 38 -6 90 -8 115 -5 l47 7 17 96 c10 53 20 103 23 111 3 8 19 -37 37 -100
l31 -114 119 3 c66 2 121 5 123 7 3 3 -19 348 -23 352 -1 2 -28 -2 -61 -9 -68
-14 -442 -14 -489 -1 -26 8 -31 15 -35 50 l-5 40 -43 -47z"/>
<path d="M3763 296 c5 -15 117 -20 131 -5 8 9 4 10 -19 6 -16 -3 -49 -2 -73 3
-30 5 -42 4 -39 -4z"/>
<path d="M4136 288 c3 -4 32 -8 64 -8 32 0 61 4 64 8 2 4 -26 8 -64 8 -38 0
-66 -4 -64 -8z"/>
<path d="M3770 250 c20 -13 120 -13 120 0 0 6 -29 10 -67 10 -48 0 -64 -3 -53
-10z"/>
<path d="M4150 250 c18 -12 68 -12 95 0 14 6 0 9 -45 9 -45 1 -60 -2 -50 -9z"/>
<path d="M3421 224 c0 -11 3 -14 6 -6 3 7 2 16 -1 19 -3 4 -6 -2 -5 -13z"/>
<path d="M3008 123 c7 -3 16 -2 19 1 4 3 -2 6 -13 5 -11 0 -14 -3 -6 -6z"/>
<path d="M3621 94 c0 -11 3 -14 6 -6 3 7 2 16 -1 19 -3 4 -6 -2 -5 -13z"/>
<path d="M2185 84 c-27 -8 -86 -18 -130 -23 -44 -5 -98 -16 -120 -24 -38 -15
-32 -16 143 -16 l182 -1 0 40 c0 44 0 44 -75 24z"/>
<path d="M550 55 l0 -35 81 0 c70 0 80 2 77 17 -2 11 -25 22 -73 34 -39 10
-73 18 -77 18 -5 1 -8 -15 -8 -34z"/>
<path d="M940 55 l0 -35 160 0 c133 0 160 2 160 14 0 23 -41 48 -57 34 -19
-15 -126 -12 -196 7 -32 8 -60 15 -62 15 -3 0 -5 -16 -5 -35z"/>
<path d="M803 66 c-13 -6 -23 -19 -23 -28 0 -15 9 -18 46 -18 37 0 45 3 42 16
-5 27 -39 42 -65 30z"/>
<path d="M4345 20 c4 -6 67 -10 155 -10 88 0 151 4 155 10 4 7 -50 10 -155 10
-105 0 -159 -3 -155 -10z"/>
</g>
</svg>
