<?xml version="1.0" standalone="no"?>
<!DOCTYPE svg PUBLIC "-//W3C//DTD SVG 20010904//EN"
 "http://www.w3.org/TR/2001/REC-SVG-20010904/DTD/svg10.dtd">
<svg version="1.0" xmlns="http://www.w3.org/2000/svg"
 width="32.000000pt" height="32.000000pt" viewBox="0 0 32.000000 32.000000"
 preserveAspectRatio="xMidYMid meet">

<g transform="translate(0.000000,32.000000) scale(0.100000,-0.100000)"
fill="#fff" stroke="none">
<path d="M27 244 c-14 -14 -6 -46 16 -65 l22 -19 -23 -20 c-15 -12 -22 -28
-20 -42 3 -23 5 -23 138 -23 133 0 135 0 138 23 2 14 -5 30 -20 42 l-23 20 23
20 c15 12 22 28 20 42 -3 22 -6 23 -134 26 -71 1 -133 -1 -137 -4z m171 -26
c9 -9 12 -9 12 0 0 7 14 12 35 12 39 0 47 -18 15 -38 -26 -16 -26 -48 0 -64
32 -20 24 -38 -15 -38 -21 0 -35 5 -35 12 0 9 -3 9 -12 0 -17 -17 -158 -16
-158 1 0 7 9 18 20 25 11 7 20 21 20 32 0 11 -9 25 -20 32 -11 7 -20 18 -20
25 0 17 141 18 158 1z"/>
<path d="M196 191 c-4 -7 -5 -15 -2 -18 9 -9 19 4 14 18 -4 11 -6 11 -12 0z"/>
<path d="M190 141 c0 -6 5 -13 10 -16 6 -3 10 1 10 9 0 9 -4 16 -10 16 -5 0
-10 -4 -10 -9z"/>
</g>
</svg>
