<svg width="12" height="12" viewBox="0 0 12 12" fill="none" xmlns="http://www.w3.org/2000/svg">
<path d="M11.763 9.18045L11.9973 11.2213C12.0106 11.343 11.9749 11.4517 11.8902 11.5473C11.8054 11.6386 11.6983 11.6842 11.5689 11.6842H0.431114C0.301709 11.6842 0.194615 11.6386 0.109832 11.5473C0.0250494 11.4517 -0.0106485 11.343 0.0027382 11.2213L0.237006 9.18045H11.763ZM11.1405 3.71L11.7161 8.76316H0.28386L0.85949 3.71C0.872877 3.60567 0.91973 3.51765 1.00005 3.44593C1.08037 3.37421 1.17631 3.33835 1.28787 3.33835H3.00137V4.17293C3.00137 4.40331 3.08504 4.60001 3.25237 4.76301C3.4197 4.92602 3.62162 5.00752 3.85812 5.00752C4.09462 5.00752 4.29654 4.92602 4.46387 4.76301C4.63121 4.60001 4.71487 4.40331 4.71487 4.17293V3.33835H7.28513V4.17293C7.28513 4.40331 7.36879 4.60001 7.53613 4.76301C7.70346 4.92602 7.90538 5.00752 8.14188 5.00752C8.37838 5.00752 8.58029 4.92602 8.74763 4.76301C8.91496 4.60001 8.99863 4.40331 8.99863 4.17293V3.33835H10.7121C10.8237 3.33835 10.9196 3.37421 10.9999 3.44593C11.0803 3.51765 11.1271 3.60567 11.1405 3.71ZM8.57025 2.50376V4.17293C8.57025 4.28595 8.52786 4.38375 8.44308 4.46634C8.3583 4.54893 8.2579 4.59023 8.14188 4.59023C8.02586 4.59023 7.92546 4.54893 7.84068 4.46634C7.75589 4.38375 7.7135 4.28595 7.7135 4.17293V2.50376C7.7135 2.043 7.54617 1.64961 7.2115 1.3236C6.87683 0.997592 6.473 0.834587 6 0.834587C5.527 0.834587 5.12317 0.997592 4.7885 1.3236C4.45383 1.64961 4.2865 2.043 4.2865 2.50376V4.17293C4.2865 4.28595 4.24411 4.38375 4.15932 4.46634C4.07454 4.54893 3.97414 4.59023 3.85812 4.59023C3.7421 4.59023 3.6417 4.54893 3.55692 4.46634C3.47214 4.38375 3.42975 4.28595 3.42975 4.17293V2.50376C3.42975 1.81262 3.68075 1.22254 4.18275 0.733523C4.68475 0.244508 5.2905 0 6 0C6.7095 0 7.31525 0.244508 7.81725 0.733523C8.31925 1.22254 8.57025 1.81262 8.57025 2.50376Z" fill="#8C8A8A"/>
</svg>
