<svg width="16" height="16" viewBox="0 0 16 16" fill="none" xmlns="http://www.w3.org/2000/svg">
<path d="M15.4361 12.3917L15.7384 15.0962C15.7557 15.2575 15.7096 15.4015 15.6002 15.5282C15.4908 15.6492 15.3526 15.7097 15.1857 15.7097H0.814333C0.647358 15.7097 0.509173 15.6492 0.399776 15.5282C0.290378 15.4015 0.244317 15.2575 0.26159 15.0962L0.563871 12.3917H15.4361ZM14.6329 5.14228L15.3757 11.8387H0.624327L1.36708 5.14228C1.38435 5.00403 1.44481 4.88739 1.54844 4.79234C1.65208 4.69729 1.77588 4.64977 1.91982 4.64977H4.13079V5.75576C4.13079 6.06106 4.23875 6.32172 4.45466 6.53773C4.67058 6.75375 4.93112 6.86175 5.23628 6.86175C5.54144 6.86175 5.80197 6.75375 6.01789 6.53773C6.23381 6.32172 6.34176 6.06106 6.34176 5.75576V4.64977H9.65822V5.75576C9.65822 6.06106 9.76618 6.32172 9.98209 6.53773C10.198 6.75375 10.4585 6.86175 10.7637 6.86175C11.0689 6.86175 11.3294 6.75375 11.5453 6.53773C11.7612 6.32172 11.8692 6.06106 11.8692 5.75576V4.64977H14.0802C14.2241 4.64977 14.3479 4.69729 14.4515 4.79234C14.5552 4.88739 14.6156 5.00403 14.6329 5.14228ZM11.3164 3.54378V5.75576C11.3164 5.90553 11.2618 6.03514 11.1524 6.14459C11.043 6.25403 10.9134 6.30876 10.7637 6.30876C10.614 6.30876 10.4845 6.25403 10.3751 6.14459C10.2657 6.03514 10.211 5.90553 10.211 5.75576V3.54378C10.211 2.93318 9.99505 2.41187 9.56322 1.97984C9.13139 1.54781 8.61031 1.3318 7.99999 1.3318C7.38967 1.3318 6.8686 1.54781 6.43677 1.97984C6.00494 2.41187 5.78902 2.93318 5.78902 3.54378V5.75576C5.78902 5.90553 5.73432 6.03514 5.62492 6.14459C5.51553 6.25403 5.38598 6.30876 5.23628 6.30876C5.08658 6.30876 4.95703 6.25403 4.84763 6.14459C4.73823 6.03514 4.68353 5.90553 4.68353 5.75576V3.54378C4.68353 2.62788 5.00741 1.84591 5.65515 1.19787C6.3029 0.549828 7.08451 0.225807 7.99999 0.225807C8.91547 0.225807 9.69709 0.549828 10.3448 1.19787C10.9926 1.84591 11.3164 2.62788 11.3164 3.54378Z" fill="#008CFF"/>
</svg>
