<svg width="19" height="19" viewBox="0 0 19 19" fill="none" xmlns="http://www.w3.org/2000/svg">
<path d="M15.4375 8.3125H7.71875V12.7886H6.89663V11.2671C6.89568 10.4051 6.55281 9.57861 5.94326 8.96904C5.33371 8.35948 4.50726 8.0166 3.64522 8.01562H1.78125V5.64062H0.59375V18.4062H1.78125V16.6345L17.2188 16.758V18.4062H18.4062V11.2812C18.4054 10.4942 18.0923 9.73957 17.5357 9.18301C16.9792 8.62646 16.2246 8.31339 15.4375 8.3125ZM1.78125 9.20312H3.64522C4.19241 9.20374 4.71701 9.42139 5.10394 9.80831C5.49086 10.1952 5.70851 10.7198 5.70913 11.267V12.7885H1.78125V9.20312ZM17.2188 15.5705L1.78125 15.447V13.9761H17.2188V15.5705ZM17.2188 12.7886H8.90625V9.5H15.4375C15.9098 9.50054 16.3625 9.68838 16.6964 10.0223C17.0304 10.3562 17.2182 10.809 17.2188 11.2812V12.7886Z" fill="#ADADAD"/>
</svg>
