<svg width="20" height="20" viewBox="0 0 20 20" fill="none" xmlns="http://www.w3.org/2000/svg">
<path d="M2.85714 2.85714C2.85714 2.09938 3.15816 1.37266 3.69398 0.836838C4.2298 0.30102 4.95652 0 5.71429 0C6.47205 0 7.19877 0.30102 7.73459 0.836838C8.27041 1.37266 8.57143 2.09938 8.57143 2.85714C8.57143 3.6149 8.27041 4.34163 7.73459 4.87745C7.19877 5.41327 6.47205 5.71429 5.71429 5.71429C4.95652 5.71429 4.2298 5.41327 3.69398 4.87745C3.15816 4.34163 2.85714 3.6149 2.85714 2.85714ZM12.5414 5.12L12.6014 5.16571C13.2076 5.61501 13.9668 5.80631 14.7135 5.69787C15.4601 5.58944 16.1336 5.19006 16.5869 4.58691C17.0402 3.98375 17.2365 3.22579 17.133 2.47843C17.0295 1.73107 16.6345 1.05499 16.0344 0.597731C15.4342 0.140475 14.6776 -0.0608335 13.9296 0.0377388C13.1815 0.136311 12.5029 0.526761 12.0416 1.12388C11.5804 1.721 11.3741 2.4763 11.4678 3.22496C11.5614 3.97363 11.9474 4.65486 12.5414 5.12ZM7.52571 7.14286C7.70515 6.80309 7.95127 6.50301 8.24935 6.26056C8.54744 6.01811 8.89136 5.83827 9.26055 5.73181C9.62975 5.62535 10.0166 5.59445 10.398 5.64096C10.7794 5.68747 11.1475 5.81043 11.4803 6.00249C11.8131 6.19455 12.1038 6.45177 12.3348 6.75874C12.5659 7.06572 12.7327 7.41616 12.8253 7.78909C12.9178 8.16201 12.9341 8.54977 12.8733 8.92917C12.8125 9.30856 12.6758 9.6718 12.4714 9.99714C12.0782 10.623 11.4576 11.0722 10.7402 11.2502C10.0228 11.4282 9.26426 11.3212 8.62404 10.9517C7.98382 10.5822 7.51172 9.97898 7.30691 9.26873C7.1021 8.55848 7.18053 7.7965 7.52571 7.14286ZM2.14286 7.14286H5.95714C5.70325 7.86794 5.64804 8.64776 5.79726 9.40138C5.94648 10.155 6.29468 10.8549 6.80571 11.4286H6.42857C5.69205 11.4285 4.9735 11.656 4.37126 12.08C3.76903 12.504 3.31254 13.1037 3.06429 13.7971C2.58476 13.6045 2.13578 13.3432 1.73143 13.0214C0.657143 12.1571 0 10.88 0 9.28571C0 8.71739 0.225765 8.17235 0.627628 7.77049C1.02949 7.36862 1.57454 7.14286 2.14286 7.14286ZM13.5714 11.4286C14.3078 11.4286 15.0261 11.6561 15.6281 12.0801C16.2301 12.5041 16.6863 13.1038 16.9343 13.7971C17.42 13.5986 17.87 13.34 18.2686 13.0214C19.3429 12.1571 20 10.88 20 9.28571C20 8.71739 19.7742 8.17235 19.3724 7.77049C18.9705 7.36862 18.4255 7.14286 17.8571 7.14286H14.0429C14.2 7.59 14.2857 8.07143 14.2857 8.57143C14.287 9.62588 13.8983 10.6436 13.1943 11.4286H13.5714ZM15.5529 14.1829C15.6571 14.4343 15.7143 14.7114 15.7143 15C15.7143 16.5943 15.0586 17.8714 13.9829 18.7357C12.9243 19.5857 11.5043 20 10 20C8.49571 20 7.07571 19.5857 6.01714 18.7357C4.94286 17.8714 4.28571 16.5943 4.28571 15C4.28496 14.7184 4.33987 14.4394 4.44729 14.1791C4.55472 13.9187 4.71253 13.6822 4.91166 13.4831C5.11079 13.284 5.34732 13.1261 5.60764 13.0187C5.86797 12.9113 6.14696 12.8564 6.42857 12.8571H13.5714C13.9959 12.857 14.4108 12.983 14.7635 13.219C15.1163 13.455 15.391 13.7905 15.5529 14.1829Z" fill="white" fill-opacity="0.8"/>
</svg>
