<svg width="20" height="20" viewBox="0 0 20 20" fill="none" xmlns="http://www.w3.org/2000/svg">
<path d="M11.002 2.38396C10.7267 2.1366 10.3696 1.99976 9.9995 1.99976C9.62938 1.99976 9.27232 2.1366 8.997 2.38396L3.497 7.32696C3.3405 7.4677 3.21537 7.6398 3.12974 7.83207C3.04411 8.02435 2.99991 8.23249 3 8.44296V15.5C3 15.8978 3.15804 16.2793 3.43934 16.5606C3.72064 16.8419 4.10218 17 4.5 17H15.5C15.8978 17 16.2794 16.8419 16.5607 16.5606C16.842 16.2793 17 15.8978 17 15.5V8.44296C17.0001 8.23249 16.9559 8.02435 16.8703 7.83207C16.7846 7.6398 16.6595 7.4677 16.503 7.32696L11.003 2.38396H11.002ZM7 11C6.73478 11 6.48043 10.8946 6.29289 10.7071C6.10536 10.5195 6 10.2652 6 9.99996C6 9.73475 6.10536 9.48039 6.29289 9.29286C6.48043 9.10532 6.73478 8.99996 7 8.99996C7.26522 8.99996 7.51957 9.10532 7.70711 9.29286C7.89464 9.48039 8 9.73475 8 9.99996C8 10.2652 7.89464 10.5195 7.70711 10.7071C7.51957 10.8946 7.26522 11 7 11ZM11 9.99996C11 10.2652 10.8946 10.5195 10.7071 10.7071C10.5196 10.8946 10.2652 11 10 11C9.73478 11 9.48043 10.8946 9.29289 10.7071C9.10536 10.5195 9 10.2652 9 9.99996C9 9.73475 9.10536 9.48039 9.29289 9.29286C9.48043 9.10532 9.73478 8.99996 10 8.99996C10.2652 8.99996 10.5196 9.10532 10.7071 9.29286C10.8946 9.48039 11 9.73475 11 9.99996ZM13 11C12.7348 11 12.4804 10.8946 12.2929 10.7071C12.1054 10.5195 12 10.2652 12 9.99996C12 9.73475 12.1054 9.48039 12.2929 9.29286C12.4804 9.10532 12.7348 8.99996 13 8.99996C13.2652 8.99996 13.5196 9.10532 13.7071 9.29286C13.8946 9.48039 14 9.73475 14 9.99996C14 10.2652 13.8946 10.5195 13.7071 10.7071C13.5196 10.8946 13.2652 11 13 11ZM8 13C8 13.2652 7.89464 13.5195 7.70711 13.7071C7.51957 13.8946 7.26522 14 7 14C6.73478 14 6.48043 13.8946 6.29289 13.7071C6.10536 13.5195 6 13.2652 6 13C6 12.7347 6.10536 12.4804 6.29289 12.2929C6.48043 12.1053 6.73478 12 7 12C7.26522 12 7.51957 12.1053 7.70711 12.2929C7.89464 12.4804 8 12.7347 8 13ZM10 14C9.73478 14 9.48043 13.8946 9.29289 13.7071C9.10536 13.5195 9 13.2652 9 13C9 12.7347 9.10536 12.4804 9.29289 12.2929C9.48043 12.1053 9.73478 12 10 12C10.2652 12 10.5196 12.1053 10.7071 12.2929C10.8946 12.4804 11 12.7347 11 13C11 13.2652 10.8946 13.5195 10.7071 13.7071C10.5196 13.8946 10.2652 14 10 14ZM14 13C14 13.2652 13.8946 13.5195 13.7071 13.7071C13.5196 13.8946 13.2652 14 13 14C12.7348 14 12.4804 13.8946 12.2929 13.7071C12.1054 13.5195 12 13.2652 12 13C12 12.7347 12.1054 12.4804 12.2929 12.2929C12.4804 12.1053 12.7348 12 13 12C13.2652 12 13.5196 12.1053 13.7071 12.2929C13.8946 12.4804 14 12.7347 14 13Z" fill="white"/>
</svg>
