<svg width="17" height="17" viewBox="0 0 17 17" fill="none" xmlns="http://www.w3.org/2000/svg">
<path d="M16.9274 0.470881C17.0641 0.8009 17.0078 1.08262 16.7586 1.31605L10.8148 7.26847V16.2273C10.8148 16.5653 10.6581 16.8028 10.3446 16.9396C10.2401 16.9799 10.1397 17 10.0432 17C9.8262 17 9.64536 16.9235 9.50068 16.7706L6.41425 13.6797C6.26153 13.5268 6.18517 13.3456 6.18517 13.1364V7.26847L0.241379 1.31605C-0.0077864 1.08262 -0.0640495 0.8009 0.0725895 0.470881C0.209228 0.15696 0.446337 0 0.783916 0H16.2161C16.5537 0 16.7908 0.15696 16.9274 0.470881Z" fill="white"/>
</svg>
