<svg width="19" height="20" viewBox="0 0 19 20" fill="none" xmlns="http://www.w3.org/2000/svg">
<path d="M18.6842 12.5409C18.6842 12.1971 18.5026 11.8819 18.2158 11.6909L11.0371 7.2117V1.9589C11.0371 1.16621 10.3966 0.526321 9.60322 0.526321C8.80983 0.526321 8.16938 1.16621 8.16938 1.9589V7.2117L0.990625 11.6909C0.786007 11.8212 0.635548 12.0211 0.567091 12.2537C0.498635 12.4862 0.516817 12.7357 0.618271 12.9559C0.719726 13.1761 0.897585 13.3522 1.11893 13.4514C1.34028 13.5507 1.59013 13.5665 1.82225 13.4959L8.16938 11.5094V16.7622L6.44878 18.0516C6.38827 18.0949 6.33924 18.1524 6.30594 18.219C6.27263 18.2855 6.25604 18.3592 6.2576 18.4336V18.9971C6.2576 19.3122 6.56348 19.5414 6.86937 19.4555L9.60322 18.6723L12.3371 19.4555C12.643 19.5414 12.9489 19.3122 12.9489 18.9971V18.4336C12.9504 18.3592 12.9338 18.2855 12.9005 18.219C12.8672 18.1524 12.8182 18.0949 12.7577 18.0516L11.0371 16.7622V11.5094L17.3842 13.4959C18.0342 13.6965 18.6842 13.2094 18.6842 12.5409Z" fill="white"/>
</svg>
