<svg width="17" height="17" viewBox="0 0 17 17" fill="none" xmlns="http://www.w3.org/2000/svg">
<path d="M15.5357 3.16667H10.6071V16.8571H16.631V4.26191C16.631 3.97143 16.5156 3.69286 16.3102 3.48746C16.1048 3.28206 15.8262 3.16667 15.5357 3.16667ZM12.7976 12.4762H11.7024V11.381H12.7976V12.4762ZM12.7976 9.7381H11.7024V8.64286H12.7976V9.7381ZM12.7976 7.00001H11.7024V5.90477H12.7976V7.00001ZM14.9881 12.4762H13.8929V11.381H14.9881V12.4762ZM14.9881 9.7381H13.8929V8.64286H14.9881V9.7381ZM14.9881 7.00001H13.8929V5.90477H14.9881V7.00001Z" fill="white"/>
<path d="M8.35095 0.428574H1.91095C1.60305 0.428574 1.30776 0.550888 1.09004 0.768609C0.872314 0.986329 0.75 1.28162 0.75 1.58953V16.8571H3.4881V15.2143H6.77381V16.8571H9.5119V1.58953C9.5119 1.28162 9.38959 0.986329 9.17187 0.768609C8.95415 0.550888 8.65886 0.428574 8.35095 0.428574ZM3.4881 12.4762H2.39286V11.381H3.4881V12.4762ZM3.4881 9.7381H2.39286V8.64286H3.4881V9.7381ZM3.4881 7H2.39286V5.90476H3.4881V7ZM3.4881 4.26191H2.39286V3.16667H3.4881V4.26191ZM5.67857 12.4762H4.58333V11.381H5.67857V12.4762ZM5.67857 9.7381H4.58333V8.64286H5.67857V9.7381ZM5.67857 7H4.58333V5.90476H5.67857V7ZM5.67857 4.26191H4.58333V3.16667H5.67857V4.26191ZM7.86905 12.4762H6.77381V11.381H7.86905V12.4762ZM7.86905 9.7381H6.77381V8.64286H7.86905V9.7381ZM7.86905 7H6.77381V5.90476H7.86905V7ZM7.86905 4.26191H6.77381V3.16667H7.86905V4.26191Z" fill="white"/>
</svg>
