<svg width="16" height="16" viewBox="0 0 16 16" fill="none" xmlns="http://www.w3.org/2000/svg">
<path d="M7.99992 10.6667C9.47268 10.6667 10.6666 9.47276 10.6666 8C10.6666 6.52724 9.47268 5.33333 7.99992 5.33333C6.52716 5.33333 5.33325 6.52724 5.33325 8C5.33325 9.47276 6.52716 10.6667 7.99992 10.6667Z" fill="white"/>
<path d="M8.66659 2.71267V1.33333H7.33325V2.71267C6.16012 2.86245 5.0699 3.39745 4.23363 4.23371C3.39737 5.06998 2.86237 6.1602 2.71259 7.33333H1.33325V8.66667H2.71259C2.86215 9.83989 3.39708 10.9302 4.23338 11.7665C5.06969 12.6028 6.16003 13.1378 7.33325 13.2873V14.6667H8.66659V13.2873C9.83985 13.1379 10.9303 12.603 11.7666 11.7667C12.6029 10.9303 13.1378 9.83993 13.2873 8.66667H14.6666V7.33333H13.2873C13.1377 6.16011 12.6028 5.06977 11.7665 4.23346C10.9301 3.39716 9.83981 2.86223 8.66659 2.71267ZM7.99992 12C5.79392 12 3.99992 10.206 3.99992 8C3.99992 5.794 5.79392 4 7.99992 4C10.2059 4 11.9999 5.794 11.9999 8C11.9999 10.206 10.2059 12 7.99992 12Z" fill="white"/>
</svg>
