<svg width="23" height="23" viewBox="0 0 23 23" fill="none" xmlns="http://www.w3.org/2000/svg">
<path d="M0.624999 8.76585C0.622001 8.94956 0.674912 9.12983 0.776714 9.28278C0.878517 9.43573 1.0244 9.55412 1.19503 9.62226L9.89594 13.1032L13.3768 21.805C13.4441 21.9733 13.5602 22.1176 13.7103 22.2192C13.8604 22.3208 14.0375 22.3751 14.2187 22.375H14.2332C14.4168 22.3721 14.5951 22.3136 14.7447 22.2071C14.8942 22.1006 15.0079 21.9512 15.0706 21.7787L22.3206 1.8412C22.38 1.679 22.3917 1.50322 22.3545 1.33457C22.3173 1.16591 22.2327 1.01139 22.1106 0.88922C21.9885 0.767046 21.8341 0.682301 21.6655 0.644964C21.4968 0.607628 21.3211 0.619255 21.1588 0.678477L1.22131 7.92848C1.04873 7.9914 0.899318 8.10523 0.792839 8.25492C0.68636 8.4046 0.627833 8.58309 0.624999 8.76676V8.76585Z" fill="#0074FF"/>
</svg>
