<svg width="11" height="12" viewBox="0 0 11 12" fill="none" xmlns="http://www.w3.org/2000/svg">
<path d="M5.27052 7.05C6.17633 7.05 6.91063 6.31127 6.91063 5.4C6.91063 4.48873 6.17633 3.75 5.27052 3.75C4.36471 3.75 3.63041 4.48873 3.63041 5.4C3.63041 6.31127 4.36471 7.05 5.27052 7.05Z" stroke="#CBCBCB" stroke-linecap="round" stroke-linejoin="round"/>
<path d="M5.27052 1C4.11057 1 2.99812 1.46357 2.1779 2.28873C1.35769 3.11389 0.896896 4.23305 0.896896 5.4C0.896896 6.4406 1.11667 7.1215 1.71695 7.875L5.27052 12L8.82409 7.875C9.42438 7.1215 9.64415 6.4406 9.64415 5.4C9.64415 4.23305 9.18336 3.11389 8.36314 2.28873C7.54293 1.46357 6.43048 1 5.27052 1V1Z" stroke="#CBCBCB" stroke-linecap="round" stroke-linejoin="round"/>
</svg>
