<svg width="11" height="12" viewBox="0 0 11 12" fill="none" xmlns="http://www.w3.org/2000/svg">
<path d="M5.27048 6.5C6.17629 6.5 6.91059 5.82843 6.91059 5C6.91059 4.17157 6.17629 3.5 5.27048 3.5C4.36467 3.5 3.63037 4.17157 3.63037 5C3.63037 5.82843 4.36467 6.5 5.27048 6.5Z" stroke="#CBCBCB" stroke-linecap="round" stroke-linejoin="round"/>
<path d="M5.2706 1C4.11064 1 2.99819 1.42143 2.17798 2.17157C1.35776 2.92172 0.896973 3.93913 0.896973 5C0.896973 5.946 1.11675 6.565 1.71703 7.25L5.2706 11L8.82417 7.25C9.42445 6.565 9.64423 5.946 9.64423 5C9.64423 3.93913 9.18343 2.92172 8.36322 2.17157C7.54301 1.42143 6.43056 1 5.2706 1V1Z" stroke="#CBCBCB" stroke-linecap="round" stroke-linejoin="round"/>
</svg>
