<svg width="17" height="16" viewBox="0 0 17 16" fill="none" xmlns="http://www.w3.org/2000/svg">
<path d="M15.6909 7.99999L16.5751 6.47175C16.6814 6.28789 16.7103 6.06934 16.6555 5.86417C16.6006 5.65899 16.4666 5.48399 16.2828 5.37764L14.753 4.49338V2.73126C14.753 2.51883 14.6686 2.3151 14.5184 2.16489C14.3682 2.01468 14.1645 1.9303 13.952 1.9303H12.1908L11.3074 0.40126C11.2007 0.217773 11.026 0.0836828 10.8212 0.0280117C10.7196 0.000471279 10.6136 -0.00663013 10.5092 0.00711902C10.4048 0.0208682 10.3043 0.0551945 10.2133 0.108108L8.68349 0.99237L7.1537 0.107307C6.96974 0.00109746 6.75113 -0.0276848 6.54595 0.0272915C6.34077 0.0822679 6.16583 0.2165 6.05962 0.400459L5.17538 1.9303H3.41412C3.2017 1.9303 2.99798 2.01468 2.84778 2.16489C2.69757 2.3151 2.61319 2.51883 2.61319 2.73126V4.49258L1.0834 5.37684C0.992117 5.42935 0.912111 5.49937 0.847975 5.58289C0.783839 5.66642 0.736838 5.76179 0.709672 5.86353C0.682507 5.96528 0.675712 6.07139 0.689679 6.17576C0.703645 6.28014 0.738098 6.38073 0.791056 6.47175L1.67529 7.99999L0.791056 9.52822C0.685324 9.71227 0.656637 9.93064 0.71125 10.1357C0.765863 10.3409 0.899346 10.5161 1.0826 10.6231L2.61239 11.5074V13.2687C2.61239 13.4811 2.69677 13.6849 2.84698 13.8351C2.99718 13.9853 3.2009 14.0697 3.41332 14.0697H5.17538L6.05962 15.5995C6.13053 15.7207 6.23177 15.8214 6.35338 15.8916C6.475 15.9618 6.6128 15.9992 6.75323 16C6.89259 16 7.03115 15.9632 7.1545 15.8919L8.68268 15.0076L10.2125 15.8919C10.3964 15.9979 10.6149 16.0267 10.82 15.9719C11.0251 15.9171 11.2001 15.7832 11.3066 15.5995L12.19 14.0697H13.9512C14.1637 14.0697 14.3674 13.9853 14.5176 13.8351C14.6678 13.6849 14.7522 13.4811 14.7522 13.2687V11.5074L16.282 10.6231C16.3731 10.5705 16.4529 10.5004 16.517 10.4168C16.581 10.3333 16.6279 10.238 16.6551 10.1363C16.6822 10.0346 16.689 9.92854 16.6752 9.82421C16.6613 9.71988 16.6271 9.6193 16.5743 9.52822L15.6909 7.99999ZM6.68034 3.98717C6.99908 3.98727 7.30472 4.114 7.53003 4.33946C7.75534 4.56493 7.88185 4.87066 7.88175 5.18941C7.88164 5.50816 7.75492 5.81381 7.52946 6.03913C7.30401 6.26444 6.99828 6.39096 6.67954 6.39086C6.3608 6.39075 6.05516 6.26402 5.82985 6.03856C5.60455 5.8131 5.47803 5.50736 5.47814 5.18861C5.47824 4.86986 5.60496 4.56421 5.83042 4.3389C6.05588 4.11358 6.3616 3.98706 6.68034 3.98717ZM6.92062 11.6764L5.63913 10.7161L10.4447 4.30835L11.7262 5.26871L6.92062 11.6764ZM10.685 11.9968C10.5272 11.9967 10.3709 11.9656 10.2251 11.9052C10.0794 11.8447 9.9469 11.7561 9.83534 11.6445C9.72378 11.5329 9.6353 11.4003 9.57495 11.2545C9.5146 11.1087 9.48357 10.9524 9.48362 10.7945C9.48367 10.6367 9.51481 10.4804 9.57526 10.3347C9.6357 10.1889 9.72427 10.0564 9.83591 9.94483C9.94754 9.83327 10.0801 9.74478 10.2259 9.68443C10.3717 9.62408 10.528 9.59305 10.6858 9.5931C11.0046 9.59321 11.3102 9.71993 11.5355 9.9454C11.7608 10.1709 11.8873 10.4766 11.8872 10.7953C11.8871 11.1141 11.7604 11.4197 11.5349 11.6451C11.3095 11.8704 11.0038 11.9969 10.685 11.9968Z" fill="white"/>
</svg>
