<svg width="14" height="14" viewBox="0 0 14 14" fill="none" xmlns="http://www.w3.org/2000/svg">
<path d="M13.0827 6.99999L13.8187 5.72799C13.9072 5.57495 13.9312 5.39305 13.8856 5.22227C13.84 5.0515 13.7284 4.90584 13.5754 4.81732L12.302 4.08132V2.61465C12.302 2.43784 12.2318 2.26827 12.1068 2.14325C11.9818 2.01823 11.8122 1.94799 11.6354 1.94799H10.1694L9.43405 0.675321C9.34524 0.522598 9.19986 0.410991 9.02938 0.364654C8.94482 0.341731 8.85656 0.335821 8.7697 0.347264C8.68284 0.358708 8.59912 0.387279 8.52338 0.431321L7.25005 1.16732L5.97671 0.430654C5.8236 0.342253 5.64163 0.318296 5.47085 0.364055C5.30007 0.409813 5.15446 0.521539 5.06605 0.674654L4.33005 1.94799H2.86405C2.68724 1.94799 2.51767 2.01823 2.39264 2.14325C2.26762 2.26827 2.19738 2.43784 2.19738 2.61465V4.08065L0.924048 4.81666C0.848069 4.86036 0.781475 4.91864 0.728091 4.98816C0.674707 5.05768 0.635585 5.13706 0.612974 5.22175C0.590362 5.30643 0.584707 5.39475 0.596332 5.48163C0.607957 5.5685 0.636634 5.65223 0.680714 5.72799L1.41671 6.99999L0.680714 8.27199C0.592707 8.42517 0.568829 8.60694 0.614287 8.77765C0.659744 8.94837 0.770851 9.09419 0.923381 9.18332L2.19671 9.91932V11.3853C2.19671 11.5621 2.26695 11.7317 2.39198 11.8567C2.517 11.9818 2.68657 12.052 2.86338 12.052H4.33005L5.06605 13.3253C5.12507 13.4262 5.20934 13.51 5.31057 13.5685C5.41179 13.6269 5.52649 13.658 5.64338 13.6587C5.75938 13.6587 5.87471 13.628 5.97738 13.5687L7.24938 12.8327L8.52271 13.5687C8.67579 13.6569 8.85764 13.6809 9.02836 13.6353C9.19908 13.5897 9.34474 13.4782 9.43338 13.3253L10.1687 12.052H11.6347C11.8115 12.052 11.9811 11.9818 12.1061 11.8567C12.2311 11.7317 12.3014 11.5621 12.3014 11.3853V9.91932L13.5747 9.18332C13.6506 9.13949 13.717 9.08114 13.7703 9.01161C13.8236 8.94207 13.8627 8.86272 13.8853 8.77808C13.9079 8.69345 13.9135 8.60519 13.902 8.51835C13.8905 8.43151 13.862 8.34779 13.818 8.27199L13.0827 6.99999ZM5.58271 3.65999C5.84802 3.66008 6.10242 3.76555 6.28996 3.95321C6.4775 4.14088 6.5828 4.39535 6.58271 4.66066C6.58263 4.92596 6.47715 5.18036 6.28949 5.3679C6.10183 5.55544 5.84735 5.66074 5.58205 5.66066C5.31674 5.66057 5.06234 5.55509 4.8748 5.36743C4.68727 5.17977 4.58196 4.92529 4.58205 4.65999C4.58214 4.39468 4.68761 4.14028 4.87527 3.95274C5.06294 3.76521 5.31741 3.6599 5.58271 3.65999ZM5.78271 10.06L4.71605 9.26065L8.71605 3.92732L9.78271 4.72666L5.78271 10.06ZM8.91605 10.3267C8.78468 10.3266 8.65461 10.3007 8.53326 10.2504C8.41191 10.2001 8.30166 10.1263 8.2088 10.0334C8.11594 9.94051 8.0423 9.83021 7.99207 9.70883C7.94184 9.58744 7.916 9.45735 7.91605 9.32599C7.91609 9.19462 7.94201 9.06455 7.99232 8.9432C8.04263 8.82185 8.11635 8.7116 8.20927 8.61874C8.3022 8.52588 8.4125 8.45224 8.53388 8.40201C8.65526 8.35178 8.78535 8.32594 8.91671 8.32599C9.18202 8.32608 9.43642 8.43155 9.62396 8.61922C9.8115 8.80688 9.9168 9.06135 9.91671 9.32665C9.91663 9.59196 9.81115 9.84636 9.62349 10.0339C9.43583 10.2214 9.18135 10.3267 8.91605 10.3267Z" fill="#008CFF"/>
</svg>
