<svg width="15" height="14" viewBox="0 0 15 14" fill="none" xmlns="http://www.w3.org/2000/svg">
<path d="M13.8148 6.99999L14.5886 5.66278C14.6815 5.5019 14.7068 5.31067 14.6589 5.13115C14.6109 4.95162 14.4936 4.79849 14.3328 4.70543L12.9942 3.9317V2.38985C12.9942 2.20398 12.9204 2.02572 12.7889 1.89428C12.6575 1.76285 12.4792 1.68901 12.2934 1.68901H10.7523L9.97926 0.351103C9.8859 0.190551 9.73308 0.0732225 9.55386 0.0245102C9.46498 0.000412369 9.37219 -0.00580136 9.28088 0.00622914C9.18957 0.0182596 9.10156 0.0482952 9.02194 0.0945945L7.68338 0.868324L6.34481 0.0938935C6.18385 0.000960277 5.99256 -0.0242242 5.81303 0.0238801C5.6335 0.0719844 5.48043 0.189437 5.38749 0.350402L4.61379 1.68901H3.07269C2.88682 1.68901 2.70856 1.76285 2.57713 1.89428C2.4457 2.02572 2.37187 2.20398 2.37187 2.38985V3.931L1.0333 4.70473C0.95343 4.75068 0.883424 4.81195 0.827305 4.88503C0.771186 4.95812 0.73006 5.04157 0.706291 5.13059C0.682521 5.21962 0.676575 5.31246 0.688796 5.40379C0.701017 5.49512 0.731162 5.58314 0.777501 5.66278L1.55121 6.99999L0.777501 8.3372C0.684985 8.49823 0.659884 8.68931 0.707671 8.86878C0.755457 9.04825 0.872255 9.20154 1.0326 9.29525L2.37117 10.069V11.6101C2.37117 11.796 2.445 11.9743 2.57643 12.1057C2.70786 12.2371 2.88612 12.311 3.07198 12.311H4.61379L5.38749 13.6496C5.44954 13.7556 5.53812 13.8437 5.64454 13.9052C5.75095 13.9666 5.87153 13.9993 5.9944 14C6.11634 14 6.23759 13.9678 6.34551 13.9054L7.68268 13.1317L9.02124 13.9054C9.18216 13.9982 9.37332 14.0234 9.55279 13.9754C9.73225 13.9275 9.88538 13.8103 9.97856 13.6496L10.7516 12.311H12.2927C12.4785 12.311 12.6568 12.2371 12.7882 12.1057C12.9197 11.9743 12.9935 11.796 12.9935 11.6101V10.069L14.3321 9.29525C14.4118 9.24917 14.4817 9.18783 14.5377 9.11473C14.5937 9.04163 14.6347 8.95821 14.6585 8.86924C14.6823 8.78026 14.6882 8.68748 14.6761 8.59619C14.664 8.5049 14.634 8.41689 14.5879 8.3372L13.8148 6.99999ZM5.93063 3.48877C6.20952 3.48886 6.47696 3.59975 6.6741 3.79703C6.87125 3.99431 6.98195 4.26183 6.98186 4.54074C6.98176 4.81964 6.87088 5.08709 6.67361 5.28424C6.47633 5.48139 6.20882 5.59209 5.92993 5.592C5.65103 5.59191 5.38359 5.48102 5.18645 5.28374C4.98931 5.08646 4.8786 4.81894 4.8787 4.54003C4.87879 4.26113 4.98967 3.99369 5.18695 3.79654C5.38422 3.59939 5.65173 3.48868 5.93063 3.48877ZM6.14087 10.2169L5.01956 9.37654L9.22448 3.76981L10.3458 4.61012L6.14087 10.2169ZM9.43472 10.4972C9.29663 10.4971 9.1599 10.4699 9.03233 10.417C8.90476 10.3641 8.78886 10.2866 8.69125 10.1889C8.59363 10.0912 8.51621 9.9753 8.46341 9.84769C8.4106 9.72009 8.38345 9.58333 8.3835 9.44523C8.38354 9.30713 8.41079 9.17039 8.46368 9.04282C8.51657 8.91525 8.59406 8.79935 8.69174 8.70173C8.78942 8.60411 8.90538 8.52669 9.03298 8.47388C9.16058 8.42107 9.29733 8.39392 9.43543 8.39396C9.71432 8.39406 9.98176 8.50494 10.1789 8.70222C10.376 8.8995 10.4867 9.16702 10.4867 9.44593C10.4866 9.72483 10.3757 9.99228 10.1784 10.1894C9.98113 10.3866 9.71362 10.4973 9.43472 10.4972Z" fill="#B7B7B7"/>
</svg>
