<svg width="16" height="16" viewBox="0 0 16 16" fill="none" xmlns="http://www.w3.org/2000/svg">
<path d="M15.4948 4.96251C15.4936 4.90837 15.4863 4.85453 15.473 4.80201C15.4678 4.78326 15.4572 4.76526 15.4505 4.74651C15.4347 4.70376 15.4205 4.66176 15.398 4.62276C15.386 4.60251 15.3695 4.58601 15.3552 4.56651C15.3312 4.53276 15.308 4.49826 15.2787 4.46901C15.2615 4.45251 15.239 4.43901 15.2203 4.42326C15.191 4.39926 15.164 4.37301 15.1302 4.35276C15.1272 4.35051 15.1235 4.35051 15.1198 4.34826L15.1138 4.34376L8.3795 0.601264C8.26822 0.539558 8.14309 0.50712 8.01585 0.506989C7.8886 0.506858 7.76341 0.539038 7.652 0.600514L0.88625 4.34301C0.884 4.34526 0.88175 4.34826 0.878 4.35051L0.8705 4.35351C0.84425 4.36851 0.82475 4.39026 0.8 4.40826C0.773 4.42851 0.7445 4.44651 0.7205 4.46976C0.698 4.49301 0.68075 4.52001 0.66125 4.54626C0.641 4.57251 0.6185 4.59576 0.602 4.62426C0.5825 4.65651 0.572 4.69326 0.55775 4.72851C0.54725 4.75326 0.53375 4.77651 0.527 4.80351C0.514047 4.85507 0.506754 4.90788 0.50525 4.96101C0.5045 4.97376 0.5 4.98501 0.5 4.99851V11C0.5 11.2723 0.64775 11.5235 0.88625 11.6555L7.61975 15.3958L7.6205 15.3965L7.622 15.3973L7.637 15.4055C7.66925 15.4235 7.7045 15.4333 7.73825 15.446C7.76225 15.4558 7.7855 15.4685 7.811 15.4753C7.93546 15.5074 8.06604 15.5074 8.1905 15.4753C8.21525 15.4685 8.2385 15.4558 8.26325 15.446C8.297 15.4333 8.33225 15.4243 8.3645 15.4055L8.3795 15.3973L8.381 15.3965L8.38175 15.3958L15.1152 11.6555C15.3523 11.5235 15.5 11.2723 15.5 11V4.99851C15.5 4.98576 15.4955 4.97526 15.4948 4.96251ZM7.979 7.90401L2.7935 5.00376L4.865 3.85776L9.9905 6.78651L7.979 7.90401ZM8.015 2.11476L13.2057 5.00001L11.5228 5.93526L6.40025 3.00801L8.015 2.11476ZM8.75 13.4758L8.7515 9.21651L11 7.95801V10.25L12.5 9.50001V7.11876L14 6.27951V10.5583L8.75 13.4758Z" fill="white"/>
</svg>
