<svg width="14" height="14" viewBox="0 0 14 14" fill="none" xmlns="http://www.w3.org/2000/svg">
<path d="M4.95842 7C6.08629 7 7.00008 6.08621 7.00008 4.95833C7.00008 3.83046 6.08629 2.91667 4.95842 2.91667C3.83054 2.91667 2.91675 3.83046 2.91675 4.95833C2.91675 6.08621 3.83054 7 4.95842 7ZM11.3751 5.97917C11.3751 6.86554 10.6573 7.58333 9.77092 7.58333C9.56024 7.58337 9.35163 7.54191 9.15698 7.4613C8.96234 7.3807 8.78548 7.26254 8.63651 7.11357C8.48754 6.9646 8.36938 6.78774 8.28878 6.5931C8.20818 6.39846 8.16671 6.18984 8.16675 5.97917C8.16675 5.09279 8.88454 4.375 9.77092 4.375C10.6573 4.375 11.3751 5.09279 11.3751 5.97917ZM4.95842 7.58333C5.75583 7.58333 7.05346 7.83154 7.90454 8.32563C8.25221 8.67942 8.45842 9.06529 8.45842 9.45V11.0833H1.16675V9.45C1.16675 8.20867 3.69287 7.58333 4.95842 7.58333ZM12.8334 11.0833H9.04175V9.45C9.04175 9.037 8.89271 8.65667 8.65558 8.31746C9.10504 8.21683 9.5475 8.16667 9.88554 8.16667C10.9726 8.16667 12.8334 8.68788 12.8334 9.72213V11.0833Z" fill="black"/>
</svg>
