<svg width="400" height="97" viewBox="0 0 400 97" fill="none" xmlns="http://www.w3.org/2000/svg">
<g opacity="0.48">
<path opacity="0.48" d="M389.6 60.528C344.8 59.364 300.8 60.722 261.6 65.572C231.2 69.452 200 71.392 170.4 75.854C118.4 83.5752 57.04 87.7074 0 85.3212V97H291.28C296.24 93.217 304.72 89.7056 315.2 86.718C335.04 80.995 367.44 75.6406 400 74.9616V60.8384C396.4 60.7026 392.96 60.625 389.6 60.528Z" fill="url(#paint0_linear_626_3)"/>
<g opacity="0.48">
<path opacity="0.48" d="M108 49.664C173.6 44.038 233.6 35.502 303.2 33.562C334.8 32.7278 368.48 32.6308 400 34.2992V15.6752C395.44 15.0738 390.8 14.5112 386.4 13.968C340 8.53601 288.8 7.37201 237.6 8.53601C231.2 8.73001 224.8 8.73001 218.4 9.11801C173.6 11.446 135.2 16.49 93.6 20.176C64.48 22.6204 28.96 22.6786 0 19.5552V51.5458C2.16 51.701 4.24 51.8562 6.4 51.992C40 54.32 75.2 52.574 108 49.664Z" fill="url(#paint1_linear_626_3)"/>
<path opacity="0.48" d="M389.6 60.528C392.96 60.625 396.4 60.7026 400 60.819V34.2992C368.48 32.6114 334.8 32.7278 303.2 33.562C233.6 35.502 173.6 44.038 108 49.664C75.2 52.574 40 54.32 6.4 51.992C4.24 51.8368 2.16 51.701 0 51.5458V85.3212C57.04 87.7074 118.4 83.5752 170.4 75.854C200 71.392 231.2 69.452 261.6 65.572C300.8 60.722 344.8 59.364 389.6 60.528Z" fill="url(#paint2_linear_626_3)"/>
<path opacity="0.48" d="M0 0V19.5552C28.96 22.6786 64.48 22.6204 93.6 20.176C135.2 16.49 173.6 11.446 218.4 9.118C224.8 8.73 231.2 8.73 237.6 8.536C288.8 7.372 340 8.536 386.4 13.968C390.8 14.4918 395.44 15.0544 400 15.6752V0H0Z" fill="url(#paint3_linear_626_3)"/>
</g>
</g>
<path d="M348.999 29.3551C350.903 29.3551 352.763 28.7877 354.346 27.7245C355.929 26.6613 357.162 25.1502 357.891 23.3822C358.619 21.6142 358.81 19.6687 358.438 17.7918C358.067 15.9149 357.15 14.1909 355.804 12.8377C354.458 11.4845 352.744 10.563 350.877 10.1897C349.01 9.81631 347.075 10.0079 345.316 10.7403C343.557 11.4726 342.054 12.7127 340.997 14.3039C339.939 15.8951 339.375 17.7658 339.375 19.6794C339.375 22.2456 340.389 24.7066 342.194 26.5212C343.999 28.3357 346.447 29.3551 348.999 29.3551V29.3551ZM348.999 15.5327C349.815 15.5327 350.612 15.7759 351.291 16.2316C351.969 16.6872 352.498 17.3348 352.81 18.0926C353.122 18.8503 353.204 19.684 353.044 20.4884C352.885 21.2928 352.492 22.0317 351.916 22.6116C351.339 23.1915 350.604 23.5865 349.804 23.7465C349.004 23.9065 348.174 23.8244 347.421 23.5105C346.667 23.1967 346.023 22.6652 345.57 21.9832C345.116 21.3013 344.874 20.4996 344.874 19.6794C344.874 18.5797 345.309 17.5249 346.083 16.7473C346.856 15.9696 347.905 15.5327 348.999 15.5327V15.5327ZM370.997 37.6486C369.094 37.6486 367.233 38.2161 365.65 39.2792C364.068 40.3424 362.834 41.8536 362.106 43.6216C361.377 45.3896 361.187 47.335 361.558 49.2119C361.929 51.0888 362.846 52.8129 364.192 54.1661C365.538 55.5192 367.253 56.4407 369.12 56.8141C370.987 57.1874 372.922 56.9958 374.68 56.2635C376.439 55.5311 377.942 54.291 378.999 52.6998C380.057 51.1087 380.621 49.238 380.621 47.3243C380.621 44.7581 379.607 42.2971 377.803 40.4825C375.998 38.668 373.55 37.6486 370.997 37.6486V37.6486ZM370.997 51.471C370.181 51.471 369.384 51.2278 368.706 50.7722C368.027 50.3165 367.499 49.6689 367.187 48.9112C366.874 48.1535 366.793 47.3197 366.952 46.5153C367.111 45.7109 367.504 44.972 368.081 44.3921C368.657 43.8122 369.392 43.4172 370.193 43.2572C370.993 43.0972 371.822 43.1794 372.576 43.4932C373.329 43.8071 373.974 44.3386 374.427 45.0205C374.88 45.7024 375.122 46.5041 375.122 47.3243C375.122 48.4241 374.687 49.4788 373.914 50.2565C373.14 51.0341 372.091 51.471 370.997 51.471ZM381.281 10.7225C381.054 10.4935 380.784 10.3118 380.487 10.1878C380.189 10.0638 379.871 10 379.549 10C379.227 10 378.908 10.0638 378.611 10.1878C378.314 10.3118 378.044 10.4935 377.817 10.7225L338.715 50.0335C338.261 50.499 338.005 51.1234 338 51.7751C337.999 52.2623 338.142 52.7387 338.411 53.144C338.68 53.5493 339.063 53.8652 339.51 54.0518C339.958 54.2383 340.451 54.287 340.926 54.1918C341.401 54.0965 341.837 53.8616 342.18 53.5167L381.281 14.2058C381.509 13.9772 381.69 13.7058 381.813 13.4069C381.937 13.108 382 12.7877 382 12.4641C382 12.1406 381.937 11.8202 381.813 11.5214C381.69 11.2225 381.509 10.951 381.281 10.7225Z" fill="white" fill-opacity="0.65"/>
<path d="M384 29C385.105 29 386 28.1046 386 27C386 25.8954 385.105 25 384 25C382.895 25 382 25.8954 382 27C382 28.1046 382.895 29 384 29Z" fill="white"/>
<path d="M330.3 17C330.3 17 326.2 15.2 325.1 14.2C324.1 13.2 322.3 9 322.3 9C322.3 9 320.5 13.1 319.5 14.2C318.5 15.2 314.3 17 314.3 17C314.3 17 318.4 18.8 319.5 19.8C320.5 20.8 322.3 25 322.3 25C322.3 25 324.1 20.9 325.1 19.8C326.1 18.8 330.3 17 330.3 17Z" fill="white"/>
<path d="M299 50.9C300.105 50.9 301 50.0046 301 48.9C301 47.7955 300.105 46.9 299 46.9C297.895 46.9 297 47.7955 297 48.9C297 50.0046 297.895 50.9 299 50.9Z" fill="white"/>
<path d="M284.4 16.4C284.4 16.4 282.7 12.2 282.7 10.7C282.7 9.2 284.4 5 284.4 5C284.4 5 280.2 6.7 278.7 6.7C277.2 6.7 273 5 273 5C273 5 274.7 9.2 274.7 10.7C274.7 12.2 273 16.4 273 16.4C273 16.4 277.2 14.7 278.7 14.7C280.2 14.7 284.4 16.4 284.4 16.4Z" fill="white"/>
<defs>
<linearGradient id="paint0_linear_626_3" x1="200" y1="59.3329" x2="200" y2="96.5317" gradientUnits="userSpaceOnUse">
<stop stop-color="#303C61"/>
<stop offset="1" stop-color="#569886"/>
</linearGradient>
<linearGradient id="paint1_linear_626_3" x1="200" y1="7.14641" x2="200" y2="52.4999" gradientUnits="userSpaceOnUse">
<stop stop-color="#303C61"/>
<stop offset="1" stop-color="#569886"/>
</linearGradient>
<linearGradient id="paint2_linear_626_3" x1="200" y1="31.8162" x2="200" y2="85.3224" gradientUnits="userSpaceOnUse">
<stop stop-color="#303C61"/>
<stop offset="1" stop-color="#569886"/>
</linearGradient>
<linearGradient id="paint3_linear_626_3" x1="200" y1="-0.478501" x2="200" y2="21.6779" gradientUnits="userSpaceOnUse">
<stop stop-color="#303C61"/>
<stop offset="1" stop-color="#569886"/>
</linearGradient>
</defs>
</svg>
