<svg width="20" height="20" viewBox="0 0 20 20" fill="none" xmlns="http://www.w3.org/2000/svg">
<path fill-rule="evenodd" clip-rule="evenodd" d="M9.99997 18.9999C14.9705 18.9999 18.9999 14.9705 18.9999 9.99997C18.9999 5.02949 14.9705 0.999997 9.99997 0.999997C5.02949 0.999997 0.999997 5.02949 0.999997 9.99997C0.999997 14.9705 5.02949 18.9999 9.99997 18.9999ZM9.99997 19.9999C15.523 19.9999 19.9999 15.523 19.9999 9.99997C19.9999 4.47699 15.523 0 9.99997 0C4.47699 0 0 4.47699 0 9.99997C0 15.523 4.47699 19.9999 9.99997 19.9999Z" fill="white" fill-opacity="0.8"/>
<path d="M3.99998 15.8149C3.99998 15.2984 4.38598 14.8619 4.89998 14.8049C8.75747 14.3779 11.26 14.4164 15.109 14.8144C15.3012 14.8346 15.4833 14.9103 15.6332 15.0323C15.7831 15.1543 15.8942 15.3173 15.9529 15.5014C16.0117 15.6856 16.0156 15.8828 15.9641 16.0691C15.9126 16.2553 15.8079 16.4226 15.663 16.5504C11.1205 20.5099 8.52447 20.4554 4.31998 16.5544C4.11498 16.3644 3.99998 16.0944 3.99998 15.8154V15.8149Z" fill="white" fill-opacity="0.8"/>
<path fill-rule="evenodd" clip-rule="evenodd" d="M15.0575 15.3113C11.239 14.9163 8.77251 14.8793 4.95451 15.3018C4.82884 15.3164 4.71298 15.3769 4.62912 15.4716C4.54526 15.5664 4.49929 15.6887 4.50002 15.8153C4.50002 15.9583 4.55952 16.0938 4.66002 16.1878C6.74401 18.1208 8.32301 18.9943 9.8665 18.9998C11.4155 19.0053 13.0795 18.1388 15.3345 16.1738C15.4061 16.11 15.4577 16.0268 15.4829 15.9343C15.5082 15.8417 15.506 15.7439 15.4767 15.6526C15.4473 15.5613 15.3921 15.4805 15.3177 15.4199C15.2432 15.3594 15.1529 15.3219 15.0575 15.3118V15.3113ZM4.84501 14.3078C8.74301 13.8763 11.282 13.9153 15.161 14.3168C15.4501 14.3469 15.7242 14.4608 15.9497 14.6443C16.1751 14.8279 16.3422 15.0732 16.4303 15.3502C16.5185 15.6272 16.524 15.924 16.4462 16.2041C16.3683 16.4842 16.2105 16.7355 15.992 16.9273C13.7045 18.9213 11.7995 20.0073 9.8635 19.9998C7.92201 19.9928 6.10101 18.8883 3.98052 16.9208C3.82869 16.7793 3.70766 16.6081 3.62499 16.4178C3.54231 16.2275 3.49977 16.0222 3.50002 15.8148C3.49929 15.442 3.63612 15.082 3.8843 14.8039C4.13248 14.5257 4.47456 14.3489 4.84501 14.3073V14.3078Z" fill="white" fill-opacity="0.8"/>
<path d="M14 7.99975C14 9.06061 13.5786 10.078 12.8284 10.8282C12.0783 11.5783 11.0609 11.9997 10 11.9997C8.93914 11.9997 7.92173 11.5783 7.17158 10.8282C6.42144 10.078 6.00002 9.06061 6.00002 7.99975C6.00002 6.93888 6.42144 5.92147 7.17158 5.17133C7.92173 4.42118 8.93914 3.99976 10 3.99976C11.0609 3.99976 12.0783 4.42118 12.8284 5.17133C13.5786 5.92147 14 6.93888 14 7.99975Z" fill="white" fill-opacity="0.8"/>
<path fill-rule="evenodd" clip-rule="evenodd" d="M10 10.9997C10.7957 10.9997 11.5587 10.6837 12.1213 10.1211C12.6839 9.55845 13 8.79539 13 7.99975C13 7.2041 12.6839 6.44104 12.1213 5.87843C11.5587 5.31582 10.7957 4.99975 10 4.99975C9.20436 4.99975 8.4413 5.31582 7.87869 5.87843C7.31608 6.44104 7.00001 7.2041 7.00001 7.99975C7.00001 8.79539 7.31608 9.55845 7.87869 10.1211C8.4413 10.6837 9.20436 10.9997 10 10.9997ZM10 11.9997C11.0609 11.9997 12.0783 11.5783 12.8284 10.8282C13.5786 10.078 14 9.06061 14 7.99975C14 6.93888 13.5786 5.92147 12.8284 5.17133C12.0783 4.42118 11.0609 3.99976 10 3.99976C8.93914 3.99976 7.92173 4.42118 7.17158 5.17133C6.42144 5.92147 6.00002 6.93888 6.00002 7.99975C6.00002 9.06061 6.42144 10.078 7.17158 10.8282C7.92173 11.5783 8.93914 11.9997 10 11.9997Z" fill="white" fill-opacity="0.8"/>
</svg>
