<svg width="28" height="28" viewBox="0 0 28 28" fill="none" xmlns="http://www.w3.org/2000/svg">
<path fill-rule="evenodd" clip-rule="evenodd" d="M13.9998 26C20.6272 26 25.9998 20.6273 25.9998 14C25.9998 7.37266 20.6272 1.99999 13.9998 1.99999C7.3725 1.99999 1.99984 7.37266 1.99984 14C1.99984 20.6273 7.3725 26 13.9998 26ZM13.9998 27.3333C21.3638 27.3333 27.3332 21.364 27.3332 14C27.3332 6.63599 21.3638 0.666656 13.9998 0.666656C6.63584 0.666656 0.666504 6.63599 0.666504 14C0.666504 21.364 6.63584 27.3333 13.9998 27.3333Z" fill="white"/>
<path d="M6 21.7533C6 21.0647 6.51467 20.4827 7.2 20.4067C12.3433 19.8373 15.68 19.8887 20.812 20.4193C21.0683 20.4462 21.3112 20.5472 21.511 20.7099C21.7108 20.8726 21.859 21.0899 21.9373 21.3354C22.0157 21.5809 22.0208 21.8439 21.9521 22.0923C21.8835 22.3406 21.744 22.5636 21.5507 22.734C15.494 28.0133 12.0327 27.9407 6.42667 22.7393C6.15333 22.486 6 22.126 6 21.754V21.7533Z" fill="white"/>
<path fill-rule="evenodd" clip-rule="evenodd" d="M20.743 21.082C15.6517 20.5553 12.363 20.506 7.27234 21.0693C7.10477 21.0888 6.95029 21.1695 6.83848 21.2958C6.72666 21.4221 6.66538 21.5853 6.66634 21.754C6.66634 21.9446 6.74568 22.1253 6.87968 22.2506C9.65834 24.828 11.7637 25.9926 13.8217 26C15.887 26.0073 18.1057 24.852 21.1123 22.232C21.2079 22.147 21.2766 22.036 21.3103 21.9127C21.3439 21.7893 21.341 21.6588 21.3019 21.5371C21.2628 21.4153 21.1891 21.3076 21.0899 21.2269C20.9907 21.1462 20.8702 21.0961 20.743 21.0826V21.082ZM7.12634 19.744C12.3237 19.1686 15.709 19.2206 20.881 19.756C21.2665 19.7962 21.632 19.948 21.9326 20.1927C22.2332 20.4375 22.4559 20.7645 22.5735 21.1339C22.6911 21.5033 22.6984 21.8989 22.5946 22.2724C22.4908 22.6458 22.2803 22.9809 21.989 23.2366C18.939 25.8953 16.399 27.3433 13.8177 27.3333C11.229 27.324 8.80101 25.8513 5.97368 23.228C5.77125 23.0394 5.60987 22.8112 5.49964 22.5574C5.38941 22.3037 5.33268 22.03 5.33301 21.7533C5.33204 21.2563 5.51448 20.7763 5.84539 20.4054C6.17629 20.0346 6.6324 19.7988 7.12634 19.7433V19.744Z" fill="white"/>
<path d="M19.3332 11.3333C19.3332 12.7478 18.7713 14.1044 17.7711 15.1046C16.7709 16.1048 15.4143 16.6667 13.9998 16.6667C12.5853 16.6667 11.2288 16.1048 10.2286 15.1046C9.22841 14.1044 8.6665 12.7478 8.6665 11.3333C8.6665 9.91885 9.22841 8.56229 10.2286 7.5621C11.2288 6.5619 12.5853 6 13.9998 6C15.4143 6 16.7709 6.5619 17.7711 7.5621C18.7713 8.56229 19.3332 9.91885 19.3332 11.3333Z" fill="white"/>
<path fill-rule="evenodd" clip-rule="evenodd" d="M13.9998 15.3333C15.0607 15.3333 16.0781 14.9119 16.8283 14.1618C17.5784 13.4116 17.9998 12.3942 17.9998 11.3333C17.9998 10.2725 17.5784 9.25505 16.8283 8.50491C16.0781 7.75476 15.0607 7.33333 13.9998 7.33333C12.939 7.33333 11.9216 7.75476 11.1714 8.50491C10.4213 9.25505 9.99984 10.2725 9.99984 11.3333C9.99984 12.3942 10.4213 13.4116 11.1714 14.1618C11.9216 14.9119 12.939 15.3333 13.9998 15.3333ZM13.9998 16.6667C15.4143 16.6667 16.7709 16.1048 17.7711 15.1046C18.7713 14.1044 19.3332 12.7478 19.3332 11.3333C19.3332 9.91885 18.7713 8.56229 17.7711 7.5621C16.7709 6.5619 15.4143 6 13.9998 6C12.5853 6 11.2288 6.5619 10.2286 7.5621C9.22841 8.56229 8.6665 9.91885 8.6665 11.3333C8.6665 12.7478 9.22841 14.1044 10.2286 15.1046C11.2288 16.1048 12.5853 16.6667 13.9998 16.6667Z" fill="white"/>
</svg>
