<svg width="23" height="17" viewBox="0 0 23 17" fill="none" xmlns="http://www.w3.org/2000/svg">
<g clip-path="url(#clip0_162_97)">
<path d="M22.0161 12.1706L18.2826 10.625V17H22.1326C22.4365 17 22.6826 16.7623 22.6826 16.4688V13.1471C22.6826 12.9392 22.6195 12.7359 22.501 12.5623C22.3825 12.3888 22.2139 12.2526 22.0161 12.1706ZM0.682617 13.1471V16.4688C0.682617 16.7623 0.928742 17 1.23262 17H5.08262V10.625L1.34915 12.1706C1.15132 12.2526 0.982728 12.3888 0.864251 12.5623C0.745774 12.7359 0.682622 12.9392 0.682617 13.1471H0.682617ZM16.6484 8.19059L14.9826 7.22504V3.40768C14.9826 3.12578 14.8668 2.85584 14.6602 2.65629L12.0714 0.155762C11.8566 -0.0517578 11.5083 -0.0517578 11.2938 0.155762L8.70506 2.65629C8.49881 2.85551 8.38262 3.12578 8.38262 3.40768V7.22504L6.7168 8.19059C6.55389 8.28496 6.41905 8.41849 6.32544 8.57815C6.23182 8.73782 6.18262 8.91818 6.18262 9.10168V17H9.48262V13.8125C9.48262 12.6388 10.4678 11.6875 11.6826 11.6875C12.8974 11.6875 13.8826 12.6388 13.8826 13.8125V17H17.1826V9.10168C17.1826 8.72848 16.9798 8.3825 16.6484 8.19059Z" fill="white"/>
</g>
<defs>
<clipPath id="clip0_162_97">
<rect width="22" height="17" fill="white" transform="translate(0.682617)"/>
</clipPath>
</defs>
</svg>
