<svg width="23" height="23" viewBox="0 0 23 23" fill="none" xmlns="http://www.w3.org/2000/svg">
<path d="M1.23999 1.24C2.31999 0.16 4.07499 1.105 4.88499 1.915L9.60999 7.045L12.85 5.695L12.04 4.885C11.77 4.615 11.77 4.21 12.04 3.94C12.175 3.67 12.58 3.805 12.85 3.94L14.065 5.155L16.495 4.075L15.82 3.4C15.55 3.13 15.55 2.725 15.82 2.59C16.09 2.32 16.495 2.32 16.765 2.59L17.845 3.67L18.52 3.4C19.6 2.86 20.815 2.995 21.625 3.94L13.795 11.77L16.9 15.01L21.625 14.74L22.3 15.685L18.115 18.115L15.685 22.3L14.74 21.625L15.01 16.9L11.635 13.795L3.80499 21.625C2.99499 20.815 2.72499 19.465 3.26499 18.52L3.53499 17.845L2.45499 16.765C2.18499 16.495 2.18499 16.09 2.45499 15.82C2.72499 15.55 3.12999 15.55 3.39999 15.82L4.07499 16.495L5.15499 13.93L3.93999 12.715C3.66999 12.445 3.66999 12.04 3.93999 11.77C4.20999 11.5 4.61499 11.5 4.74999 11.77L5.55999 12.58L6.90999 9.34L1.77999 4.75C0.969988 4.075 0.159988 2.185 1.23999 1.24Z" fill="white"/>
</svg>
