<svg width="19" height="14" viewBox="0 0 19 14" fill="none" xmlns="http://www.w3.org/2000/svg">
<path d="M0 3.20833C0 2.35743 0.344056 1.54138 0.956479 0.939699C1.5689 0.33802 2.39953 0 3.26562 0H15.7344C16.6005 0 17.4311 0.33802 18.0435 0.939699C18.6559 1.54138 19 2.35743 19 3.20833V10.7917C19 11.6426 18.6559 12.4586 18.0435 13.0603C17.4311 13.662 16.6005 14 15.7344 14H3.26562C2.39953 14 1.5689 13.662 0.956479 13.0603C0.344056 12.4586 0 11.6426 0 10.7917V3.20833ZM3.26562 1.16667C2.71447 1.16667 2.18589 1.38177 1.79617 1.76466C1.40644 2.14754 1.1875 2.66685 1.1875 3.20833V10.7917C1.1875 11.9187 2.1185 12.8333 3.26562 12.8333H15.7344C16.2855 12.8333 16.8141 12.6182 17.2038 12.2353C17.5936 11.8525 17.8125 11.3331 17.8125 10.7917V3.20833C17.8125 2.66685 17.5936 2.14754 17.2038 1.76466C16.8141 1.38177 16.2855 1.16667 15.7344 1.16667H3.26562ZM10.6875 2.91667C10.6875 2.76196 10.7501 2.61358 10.8614 2.50419C10.9728 2.39479 11.1238 2.33333 11.2812 2.33333H13.6562C13.8137 2.33333 13.9647 2.39479 14.0761 2.50419C14.1874 2.61358 14.25 2.76196 14.25 2.91667V5.25C14.25 5.40471 14.1874 5.55308 14.0761 5.66248C13.9647 5.77188 13.8137 5.83333 13.6562 5.83333C13.4988 5.83333 13.3478 5.77188 13.2364 5.66248C13.1251 5.55308 13.0625 5.40471 13.0625 5.25V4.32483L11.1079 6.24633C10.9964 6.35587 10.8452 6.4174 10.6875 6.4174C10.5298 6.4174 10.3786 6.35587 10.2671 6.24633C10.1556 6.1368 10.093 5.98824 10.093 5.83333C10.093 5.67843 10.1556 5.52987 10.2671 5.42033L12.2229 3.5H11.2812C11.1238 3.5 10.9728 3.43854 10.8614 3.32915C10.7501 3.21975 10.6875 3.07138 10.6875 2.91667ZM7.89213 7.75367C8.00362 7.64413 8.15483 7.5826 8.3125 7.5826C8.47017 7.5826 8.62138 7.64413 8.73287 7.75367C8.84437 7.8632 8.907 8.01176 8.907 8.16667C8.907 8.32157 8.84437 8.47013 8.73287 8.57967L6.77706 10.5H7.71875C7.87622 10.5 8.02725 10.5615 8.1386 10.6709C8.24994 10.7802 8.3125 10.9286 8.3125 11.0833C8.3125 11.238 8.24994 11.3864 8.1386 11.4958C8.02725 11.6052 7.87622 11.6667 7.71875 11.6667H5.34375C5.18628 11.6667 5.03525 11.6052 4.92391 11.4958C4.81256 11.3864 4.75 11.238 4.75 11.0833V8.75C4.75 8.59529 4.81256 8.44692 4.92391 8.33752C5.03525 8.22812 5.18628 8.16667 5.34375 8.16667C5.50122 8.16667 5.65225 8.22812 5.76359 8.33752C5.87494 8.44692 5.9375 8.59529 5.9375 8.75V9.67517L7.89213 7.75367Z" fill="#ADADAD"/>
</svg>
