<svg width="21" height="21" viewBox="0 0 21 16" fill="none" xmlns="http://www.w3.org/2000/svg">
<path d="M1.31251 6.64572C1.02768 6.64602 0.750511 6.54897 0.522908 6.36923C0.295305 6.18949 0.129649 5.93685 0.0509913 5.64951C-0.0276664 5.36217 -0.0150477 5.05576 0.0869392 4.77662C0.188926 4.49748 0.374734 4.26078 0.616264 4.10233L4.14074 0.402844C4.26256 0.275064 4.40717 0.173719 4.5663 0.104599C4.72544 0.0354795 4.89599 -6.29425e-05 5.06821 9.53674e-07C5.24043 6.48499e-05 5.41096 0.0357342 5.57005 0.104972C5.72914 0.174211 5.87368 0.275661 5.99541 0.403533C6.11715 0.531404 6.2137 0.683193 6.27955 0.850231C6.3454 1.01727 6.37926 1.19629 6.3792 1.37706C6.37914 1.55783 6.34516 1.73683 6.2792 1.90382C6.21323 2.07081 6.11658 2.22252 5.99476 2.3503L4.52492 3.89176H14.4244C14.7721 3.89176 15.1056 4.03676 15.3515 4.29486C15.5974 4.55297 15.7356 4.90304 15.7356 5.26805C15.7356 5.63307 15.5974 5.98314 15.3515 6.24124C15.1056 6.49935 14.7721 6.64435 14.4244 6.64435H1.31251V6.64572ZM19.6875 9.35428C19.9723 9.35398 20.2495 9.45103 20.4771 9.63077C20.7047 9.81051 20.8704 10.0631 20.949 10.3505C21.0277 10.6378 21.015 10.9442 20.9131 11.2234C20.8111 11.5025 20.6253 11.7392 20.3837 11.8977L16.8593 15.5972C16.6132 15.8552 16.2796 16.0001 15.9318 16C15.584 15.9999 15.2504 15.8547 15.0046 15.5965C14.7587 15.3382 14.6207 14.988 14.6208 14.6229C14.6209 14.2578 14.7592 13.9078 15.0052 13.6497L16.4751 12.1082H6.57561C6.22787 12.1082 5.89436 11.9632 5.64846 11.7051C5.40257 11.447 5.26443 11.097 5.26443 10.7319C5.26443 10.3669 5.40257 10.0169 5.64846 9.75876C5.89436 9.50065 6.22787 9.35565 6.57561 9.35565H19.6875V9.35428Z" fill="black"/>
</svg>
