<svg width="16" height="16" viewBox="0 0 16 16" fill="none" xmlns="http://www.w3.org/2000/svg">
<path d="M14.8837 11.5463C14.8837 12.3913 14.1925 13.0825 13.3475 13.0825H2.65246C1.80871 13.0825 1.11621 12.3913 1.11621 11.5463V5.20751C1.11621 4.36251 1.80871 3.67126 2.65246 3.67126H13.3475C14.1925 3.67126 14.8837 4.36251 14.8837 5.20751V11.5463Z" fill="white" fill-opacity="0.7"/>
<path d="M9.94772 6.2075H6.05397C5.68022 6.2075 5.37646 5.90375 5.37646 5.53V2.33375C5.37646 1.96 5.68022 1.65625 6.05397 1.65625H9.94772C10.3215 1.65625 10.6252 1.96 10.6252 2.33375V5.52875C10.6252 5.90375 10.3215 6.2075 9.94772 6.2075ZM6.73146 4.8525H9.26897V3.01125H6.73146V4.8525Z" fill="#C0C0C0"/>
<path d="M0.545 15.1438C0.828736 15.1438 1.05875 14.9143 1.05875 14.6313C1.05875 14.3482 0.828736 14.1188 0.545 14.1188C0.261264 14.1188 0.03125 14.3482 0.03125 14.6313C0.03125 14.9143 0.261264 15.1438 0.545 15.1438Z" fill="white" fill-opacity="0.7"/>
<path d="M2.03643 15.1438C2.31947 15.1438 2.54893 14.9143 2.54893 14.6313C2.54893 14.3482 2.31947 14.1188 2.03643 14.1188C1.75338 14.1188 1.52393 14.3482 1.52393 14.6313C1.52393 14.9143 1.75338 15.1438 2.03643 15.1438Z" fill="white" fill-opacity="0.7"/>
<path d="M3.52764 15.1438C3.81068 15.1438 4.04014 14.9143 4.04014 14.6313C4.04014 14.3482 3.81068 14.1188 3.52764 14.1188C3.24459 14.1188 3.01514 14.3482 3.01514 14.6313C3.01514 14.9143 3.24459 15.1438 3.52764 15.1438Z" fill="white" fill-opacity="0.7"/>
<path d="M5.01885 15.1438C5.30189 15.1438 5.53135 14.9143 5.53135 14.6313C5.53135 14.3482 5.30189 14.1188 5.01885 14.1188C4.7358 14.1188 4.50635 14.3482 4.50635 14.6313C4.50635 14.9143 4.7358 15.1438 5.01885 15.1438Z" fill="white" fill-opacity="0.7"/>
<path d="M6.50887 15.1438C6.7926 15.1438 7.02262 14.9143 7.02262 14.6313C7.02262 14.3482 6.7926 14.1188 6.50887 14.1188C6.22513 14.1188 5.99512 14.3482 5.99512 14.6313C5.99512 14.9143 6.22513 15.1438 6.50887 15.1438Z" fill="white" fill-opacity="0.7"/>
<path d="M8.51355 14.6313C8.51059 14.7654 8.45523 14.893 8.35933 14.9869C8.26342 15.0807 8.13459 15.1332 8.00043 15.1332C7.86627 15.1332 7.73744 15.0807 7.64153 14.9869C7.54563 14.893 7.49027 14.7654 7.4873 14.6313C7.4873 14.3475 7.71605 14.1188 8.00105 14.1188C8.28355 14.1188 8.51355 14.3488 8.51355 14.6313ZM10.0048 14.6313C10.0018 14.7654 9.94648 14.893 9.85057 14.9869C9.75467 15.0807 9.62584 15.1332 9.49168 15.1332C9.35752 15.1332 9.22869 15.0807 9.13278 14.9869C9.03688 14.893 8.98152 14.7654 8.97855 14.6313C8.97855 14.3475 9.2073 14.1188 9.4923 14.1188C9.7748 14.1188 10.0048 14.3488 10.0048 14.6313Z" fill="white" fill-opacity="0.7"/>
<path d="M10.9827 15.1438C11.2658 15.1438 11.4952 14.9143 11.4952 14.6313C11.4952 14.3482 11.2658 14.1188 10.9827 14.1188C10.6997 14.1188 10.4702 14.3482 10.4702 14.6313C10.4702 14.9143 10.6997 15.1438 10.9827 15.1438Z" fill="white" fill-opacity="0.7"/>
<path d="M12.4739 15.1438C12.757 15.1438 12.9864 14.9143 12.9864 14.6313C12.9864 14.3482 12.757 14.1188 12.4739 14.1188C12.1909 14.1188 11.9614 14.3482 11.9614 14.6313C11.9614 14.9143 12.1909 15.1438 12.4739 15.1438Z" fill="white" fill-opacity="0.7"/>
<path d="M13.9651 15.1438C14.2482 15.1438 14.4776 14.9143 14.4776 14.6313C14.4776 14.3482 14.2482 14.1188 13.9651 14.1188C13.6821 14.1188 13.4526 14.3482 13.4526 14.6313C13.4526 14.9143 13.6821 15.1438 13.9651 15.1438Z" fill="white" fill-opacity="0.7"/>
<path d="M15.9686 14.6313C15.9657 14.7654 15.9103 14.893 15.8144 14.9869C15.7185 15.0807 15.5897 15.1332 15.4555 15.1332C15.3213 15.1332 15.1925 15.0807 15.0966 14.9869C15.0007 14.893 14.9453 14.7654 14.9424 14.6313C14.9424 14.4954 14.9964 14.365 15.0925 14.2689C15.1886 14.1728 15.319 14.1188 15.4549 14.1188C15.7386 14.1188 15.9686 14.3488 15.9686 14.6313Z" fill="white" fill-opacity="0.7"/>
</svg>
