<svg width="17" height="16" viewBox="0 0 17 16" fill="none" xmlns="http://www.w3.org/2000/svg">
<path d="M14.3198 2.36284C13.5808 1.61656 12.7017 1.02365 11.7329 0.618165C10.7641 0.212679 9.72472 0.00260903 8.67449 2.4149e-05C7.62426 -0.00256073 6.58387 0.20239 5.61309 0.603103C4.6423 1.00381 3.76026 1.59239 3.01764 2.33502C2.27501 3.07765 1.68643 3.95969 1.28572 4.93047C0.885007 5.90125 0.680056 6.94164 0.682641 7.99187C0.685226 9.0421 0.895296 10.0815 1.30078 11.0503C1.70627 12.0191 2.29918 12.8982 3.04545 13.6372C3.78442 14.3834 4.66355 14.9763 5.63235 15.3818C6.60115 15.7873 7.64052 15.9974 8.69075 16C9.74098 16.0026 10.7814 15.7976 11.7522 15.3969C12.7229 14.9962 13.605 14.4076 14.3476 13.665C15.0902 12.9224 15.6788 12.0403 16.0795 11.0695C16.4802 10.0987 16.6852 9.05836 16.6826 8.00813C16.68 6.9579 16.4699 5.91853 16.0645 4.94973C15.659 3.98093 15.0661 3.1018 14.3198 2.36284ZM1.84926 8C1.849 7.39522 1.92919 6.79309 2.08772 6.20945C2.34895 6.77178 2.72834 7.25758 2.98637 7.8345C3.31986 8.57621 4.21531 8.3705 4.61072 9.02038C4.96164 9.5973 4.58687 10.3269 4.84953 10.9305C5.0403 11.3686 5.49016 11.4644 5.80051 11.7847C6.11762 12.1078 6.11086 12.5506 6.15926 12.972C6.21388 13.4671 6.30247 13.9578 6.42441 14.4408C6.42441 14.4444 6.42441 14.4483 6.42725 14.4518C3.76402 13.5165 1.84926 10.9778 1.84926 8ZM8.68262 14.8334C8.301 14.8332 7.92005 14.8013 7.54373 14.738C7.54764 14.6415 7.54942 14.5515 7.55903 14.4888C7.64551 13.923 7.92881 13.3695 8.31106 12.946C8.68867 12.5282 9.20615 12.2456 9.52504 11.7715C9.83753 11.3088 9.93113 10.686 9.80229 10.1454C9.6126 9.34674 8.52744 9.08017 7.94234 8.64703C7.60601 8.3979 7.30669 8.01281 6.86502 7.98149C6.66144 7.96726 6.49096 8.01103 6.28916 7.95907C6.10409 7.91102 5.95888 7.81137 5.76171 7.83735C5.39335 7.88575 5.16095 8.27938 4.76518 8.226C4.3897 8.17582 4.00284 7.73628 3.91742 7.37859C3.8078 6.91876 4.17153 6.76964 4.56125 6.72871C4.7239 6.71163 4.90648 6.69312 5.06272 6.75291C5.26843 6.82908 5.36559 7.03052 5.55031 7.13231C5.8966 7.32236 5.96671 7.01877 5.91368 6.71127C5.83432 6.25073 5.74178 6.06317 6.1525 5.74606C6.43722 5.52753 6.68066 5.36951 6.6351 4.97695C6.60805 4.74633 6.48171 4.64205 6.59951 4.41249C6.68884 4.23774 6.93406 4.08007 7.09386 3.97579C7.50636 3.70673 8.86093 3.72666 8.3075 2.97357C8.14485 2.75255 7.84482 2.3575 7.5601 2.3034C7.20419 2.23613 7.04617 2.63332 6.79811 2.80843C6.54186 2.98958 6.04288 3.1953 5.78627 2.9152C5.44104 2.5383 6.01512 2.4148 6.14218 2.15143C6.2009 2.02864 6.14218 1.85816 6.04323 1.69765C6.1716 1.64355 6.30209 1.59337 6.43473 1.5471C6.51785 1.6085 6.61646 1.64547 6.71945 1.65387C6.95755 1.66953 7.18213 1.5407 7.38998 1.70299C7.6206 1.88094 7.78681 2.10587 8.09289 2.16139C8.389 2.21514 8.70255 2.04252 8.77587 1.73929C8.82035 1.55493 8.77587 1.36025 8.73316 1.16985C10.0642 1.1775 11.3637 1.57614 12.4702 2.31621C12.399 2.28916 12.3139 2.29237 12.2089 2.34113C11.9929 2.44149 11.6868 2.69703 11.6615 2.95043C11.6327 3.238 12.0569 3.27858 12.2584 3.27858C12.5609 3.27858 12.8673 3.14333 12.7698 2.79384C12.7275 2.64222 12.6698 2.48456 12.5769 2.38917C12.8002 2.54412 13.0141 2.71216 13.2176 2.89242C13.2143 2.89562 13.2111 2.89847 13.2079 2.90203C13.0029 3.11557 12.7648 3.28463 12.6246 3.54444C12.5257 3.72737 12.4143 3.81421 12.2139 3.86155C12.1036 3.88753 11.9776 3.89714 11.885 3.97117C11.6274 4.17403 11.774 4.66162 12.0182 4.8079C12.3267 4.99261 12.7844 4.90577 13.0172 4.64205C13.199 4.43562 13.3062 4.07723 13.6332 4.07758C13.7772 4.07728 13.9156 4.13366 14.0183 4.23454C14.1536 4.37476 14.1269 4.50573 14.1557 4.68084C14.2066 4.9919 14.481 4.8232 14.6479 4.66625C14.7696 4.88279 14.8794 5.10579 14.9768 5.33428C14.7931 5.59872 14.6472 5.887 14.2055 5.57878C13.9411 5.39407 13.7785 5.12607 13.4464 5.04279C13.1563 4.97161 12.8592 5.04564 12.5727 5.09511C12.247 5.1517 11.8608 5.17661 11.6138 5.42325C11.375 5.661 11.2487 5.97918 10.9946 6.21799C10.5031 6.68066 10.2956 7.18569 10.6138 7.83984C10.9198 8.46873 11.5601 8.81004 12.2509 8.76519C12.9296 8.71999 13.6347 8.32636 13.6151 9.31258C13.608 9.66172 13.6809 9.90338 13.7881 10.2276C13.8874 10.5266 13.8806 10.8163 13.9034 11.1248C13.925 11.4862 13.9815 11.8446 14.0721 12.195C13.4341 13.0164 12.6169 13.6811 11.6829 14.1383C10.7488 14.5956 9.7226 14.8333 8.68262 14.8334Z" fill="white"/>
</svg>
